<svg width="106" height="106" viewBox="0 0 106 106" fill="none" xmlns="http://www.w3.org/2000/svg">
<path d="M103 34.35V14.15C103 6.2 99.8 3 91.85 3H71.65C63.7 3 60.5 6.2 60.5 14.15V34.35C60.5 42.3 63.7 45.5 71.65 45.5H91.85C99.8 45.5 103 42.3 103 34.35Z" stroke="#00196C" stroke-width="6" stroke-linecap="round" stroke-linejoin="round"/>
<path d="M45.5 35.6V12.9C45.5 5.85 42.3 3 34.35 3H14.15C6.2 3 3 5.85 3 12.9V35.55C3 42.65 6.2 45.45 14.15 45.45H34.35C42.3 45.5 45.5 42.65 45.5 35.6Z" stroke="#00196C" stroke-width="6" stroke-linecap="round" stroke-linejoin="round"/>
<path d="M45.5 91.85V71.65C45.5 63.7 42.3 60.5 34.35 60.5H14.15C6.2 60.5 3 63.7 3 71.65V91.85C3 99.8 6.2 103 14.15 103H34.35C42.3 103 45.5 99.8 45.5 91.85Z" stroke="#00196C" stroke-width="6" stroke-linecap="round" stroke-linejoin="round"/>
<path d="M65.5 80.5H95.5" stroke="#EE4C7D" stroke-width="6" stroke-linecap="round"/>
<path d="M80.5 95.5V65.5" stroke="#EE4C7D" stroke-width="6" stroke-linecap="round"/>
</svg>
