<?xml version="1.0" encoding="UTF-8"?>
<svg width="31px" height="44px" viewBox="0 0 31 44" version="1.1" xmlns="http://www.w3.org/2000/svg" xmlns:xlink="http://www.w3.org/1999/xlink">
    <!-- Generator: Sketch 52.5 (67469) - http://www.bohemiancoding.com/sketch -->
    <title>Artboard</title>
    <desc>Created with Sketch.</desc>
    <g id="Artboard" stroke="none" stroke-width="1" fill="none" fill-rule="evenodd">
        <path d="M25.7,9.14277844 C25.3604563,9.05393106 25.0240275,8.98341721 24.7,8.92757582 L24.7,9 C24.7,9.55228475 24.2522847,10 23.7,10 C23.1477153,10 22.7,9.55228475 22.7,9 L22.7,8.7258015 C22.329429,8.71208849 21.9938175,8.71174639 21.7075176,8.7175992 L21.7075176,9.84415906 C23.0582374,10.104319 25.3089571,10.8569589 26.578557,13.0289587 C26.8953569,13.5723186 26.712477,14.2702385 26.168637,14.5879985 C25.987677,14.6935985 25.7899171,14.7439985 25.5950371,14.7439985 C25.2028771,14.7439985 24.8212772,14.5414385 24.6095972,14.1785585 C23.6975973,12.6175987 21.8467175,12.1639988 20.9908776,12.0348788 L20.2819177,12.7438387 L21.3835176,13.8454386 C21.5971176,14.0595186 21.7171176,14.3489585 21.7171176,14.6513585 C21.7171176,25.3361572 13.0243186,34.0284762 2.33999986,34.0284762 C1.71023994,34.0284762 1.2,33.5187162 1.2,32.8889563 C1.2,32.2591964 1.71023994,31.7489565 2.33999986,31.7489565 C11.6111988,31.7489565 19.1827179,24.3300773 19.4313578,15.1174384 L14.8175984,10.504639 C14.3726384,10.059679 14.3726384,9.33775913 14.8175984,8.89279918 C15.2625583,8.44735923 15.9844782,8.44735923 16.4294382,8.89279918 L18.6695979,11.1324789 L19.4270378,10.375039 L19.4270378,3.13951986 C19.4270378,2.50975994 19.9372778,2 20.5670377,2 C21.1967976,2 21.7065576,2.50975994 21.7065576,3.13951986 L21.7065576,6.43711947 C21.9359975,6.43279947 22.1894375,6.43231947 22.4630375,6.43807947 C22.8035174,6.11167999 23.1835174,5.94848024 23.6030373,5.94848024 C24.0231973,5.94848024 24.4031972,6.17503998 24.7430372,6.62815945 C24.9955172,6.66559944 25.2513571,6.70975944 25.5100771,6.76207943 C25.8025571,6.54543946 26.158717,6.43711947 26.578557,6.43711947 C26.9980769,6.43711947 27.4019169,6.77263943 27.7900768,7.44367935 C28.0487968,7.55071934 28.3051168,7.66927932 28.5561567,7.79935931 L28.5561567,5.64751957 C28.5561567,5.01775964 29.0663967,4.5075197 29.6961566,4.5075197 C30.3254365,4.5075197 30.8361565,5.01775964 30.8361565,5.64751957 L30.8361565,14.6523185 C30.8361565,30.3646366 18.052318,43.1484751 2.33999986,43.1484751 C1.71023994,43.1484751 1.20048,42.6367952 1.20048,42.0070352 C1.20048,41.3772753 1.71071994,40.8670354 2.34047986,40.8670354 C16.7961581,40.8670354 28.5566367,29.1065568 28.5566367,14.6508785 L28.5566367,10.508959 C28.2908542,10.2884382 28.0025621,10.0948539 27.7,9.92495766 L27.7,10 C27.7,10.5522848 27.2522847,11 26.7,11 C26.1477153,11 25.7,10.5522848 25.7,10 L25.7,9.14277844 Z" id="Combined-Shape" fill="#F33C6E"></path>
    </g>
</svg>