<svg width="87" height="67" viewBox="0 0 87 67" fill="none" xmlns="http://www.w3.org/2000/svg">
<path fill-rule="evenodd" clip-rule="evenodd" d="M15.9936 6.09766C19.7576 6.09766 20.9736 7.76806 20.9736 10.4385V16.3249C20.9736 17.6281 21.1544 18.5745 22.8248 18.5745V19.0873C22.8248 19.0873 21.1232 19.0289 20.0312 19.0289C18.8176 19.0289 18.0592 19.0289 16.9368 19.0873V18.5745C18.6056 18.5745 19.0608 17.7849 19.0608 16.2345V10.3777C19.0608 8.10326 17.5736 7.07046 15.7512 7.07046C13.1128 7.07046 12.4128 9.31446 12.4128 10.4385V16.3249C12.4128 17.6281 12.5968 18.5745 14.264 18.5745V19.0873C14.264 19.0873 12.5024 19.0289 11.3824 19.0289C10.1984 19.0289 9.4976 19.0289 8.3768 19.0873V18.5745C10.0456 18.5745 10.4992 17.7849 10.4992 16.2345V10.3777C10.4992 8.10326 9.3808 7.07046 7.5576 7.07046C4.916 7.07046 3.852 8.61606 3.852 10.5585V16.6017C3.852 17.9385 4.1256 18.5745 5.5832 18.5745V19.0873C5.5832 19.0873 4.0368 19.0289 2.8496 19.0289C1.6672 19.0289 1.1224 19.0289 0.0272 19.0873V18.5745C1.76 18.5745 1.9408 17.9385 1.9408 16.5673V9.64806C1.9408 8.19286 1.1824 8.00646 0 8.00646V7.58486H0.212C1.76 7.58486 2.8208 6.61126 2.7912 6.28006H3.368V7.79766C3.368 7.79766 5.1912 6.09766 7.7968 6.09766C10.1984 6.09766 11.4128 6.76646 11.9568 7.89046C12.0184 7.98326 13.3536 6.09766 15.9936 6.09766Z" fill="black"/>
<path fill-rule="evenodd" clip-rule="evenodd" d="M26.5603 2.05947C26.5603 1.24027 27.1683 0.572266 28.0163 0.572266C28.8067 0.572266 29.4147 1.27067 29.4147 2.02907C29.4147 2.85227 28.8371 3.54747 27.9875 3.54747C27.1387 3.54747 26.5603 2.85227 26.5603 2.05947ZM29.0195 16.6019C29.0195 17.9387 29.1403 18.5747 30.9619 18.5747V19.0875C30.9619 19.0875 29.2307 19.0291 28.0483 19.0291C26.8675 19.0291 25.1323 19.0291 24.0371 19.0875V18.5747C25.7715 18.5747 27.1083 17.9387 27.1083 16.5675V9.64826C27.1083 8.19306 26.1659 8.00667 24.9827 8.00667V7.58506H25.1947C26.7435 7.58506 28.1411 7.07067 28.4435 6.27947H29.0195V16.6019Z" fill="black"/>
<path fill-rule="evenodd" clip-rule="evenodd" d="M33.3008 8.00646V7.58566H33.5136C35.0624 7.58566 36.124 6.61126 36.092 6.28006H36.6696V7.79766C36.6696 7.79766 38.492 6.09766 41.1016 6.09766C44.8656 6.09766 46.0776 7.76806 46.0776 10.4385V16.3249C46.0776 17.6281 47.204 18.5745 48.8752 18.5745V19.0881C48.8752 19.0881 46.2008 19.0289 45.0752 19.0289C43.8952 19.0289 43.1664 19.0289 42.0424 19.0881V18.5745C43.7128 18.5745 44.168 17.7857 44.168 16.2345V10.3777C44.168 8.10326 42.68 7.07046 40.8576 7.07046C38.2208 7.07046 37.1544 8.61686 37.1544 10.5585V16.6017C37.1544 17.9385 37.4304 18.5745 38.8848 18.5745V19.0881C38.8848 19.0881 37.3672 19.0289 36.184 19.0289C35.0024 19.0289 34.4232 19.0289 33.332 19.0881V18.5745C35.0624 18.5745 35.2424 17.9385 35.2424 16.5673V9.64886C35.2424 8.19286 34.484 8.00646 33.3008 8.00646Z" fill="black"/>
<path fill-rule="evenodd" clip-rule="evenodd" d="M53.1253 15.7777C53.1253 17.7857 54.0045 18.2105 55.9477 18.2105C58.8917 18.2105 60.1357 16.5393 60.1357 14.1113V11.8337C60.1357 11.8337 59.2253 12.6857 56.4933 12.9585C53.7301 13.2313 53.1253 13.9289 53.1253 15.7777ZM52.7285 9.52646H51.7885L52.4861 6.22086C52.4861 6.22086 55.5813 6.09766 57.3725 6.09766C60.9565 6.09766 62.0485 7.00966 62.0485 9.49846V15.8721C62.0485 16.9033 62.5341 17.3265 63.4133 17.3265C63.6565 17.3265 64.0525 17.2073 64.0525 17.2073L64.2949 17.6905C64.2949 17.6905 63.1717 18.0897 62.5341 18.3641C61.9269 18.6361 60.9853 19.1809 60.9853 19.1809C60.9853 19.1809 60.5013 18.2105 60.0429 17.6281C59.1653 18.4249 57.6181 19.3937 55.0965 19.3937C52.3957 19.3937 51.0293 18.5105 51.0293 15.7473C51.0293 13.2313 52.0309 12.1649 56.1285 11.9553C58.5877 11.8337 60.1989 11.1697 60.1989 9.28406C60.1989 7.30886 58.1925 7.10006 56.5533 7.10006C54.7933 7.10006 53.4285 7.18806 52.7285 9.52646Z" fill="black"/>
<path fill-rule="evenodd" clip-rule="evenodd" d="M7.7072 30.211C4.8552 30.211 3.8216 31.4526 3.8216 35.7654C3.8216 40.6534 5.0344 41.351 7.496 41.351C10.1984 41.351 11.2288 39.527 11.2288 35.6142C11.2288 31.4526 10.2256 30.211 7.7072 30.211ZM0 25.235V24.7814H0.5144C2.0024 24.7814 2.9416 24.171 3.4904 23.5654H4.0368V30.7862C4.5504 30.0278 5.4616 29.0566 8.164 29.0846C11.6824 29.1166 13.4736 30.3926 13.4736 35.6382C13.4736 41.351 11.26 42.379 7.86 42.379C6.0696 42.379 4.888 42.1998 3.52 40.9238C3.156 41.1678 2.8816 41.5622 2.7008 42.0758H1.6992C1.7592 40.9238 1.8816 39.6478 1.8816 37.7934V27.7894C1.8816 26.511 1.3032 25.235 0.424 25.235H0Z" fill="black"/>
<path fill-rule="evenodd" clip-rule="evenodd" d="M24.5256 25.05C24.5256 24.2892 25.0736 23.6812 25.8616 23.6812C26.5904 23.6812 27.136 24.3204 27.136 25.0172C27.136 25.7764 26.62 26.4164 25.8312 26.4164C25.0432 26.4164 24.5256 25.7764 24.5256 25.05ZM20.2752 25.05C20.2752 24.2892 20.824 23.6812 21.6128 23.6812C22.3408 23.6812 22.8888 24.3204 22.8888 25.0172C22.8888 25.7764 22.372 26.4164 21.584 26.4164C20.7928 26.4164 20.2752 25.7764 20.2752 25.05ZM19.792 38.7692C19.792 40.774 20.6704 41.1964 22.6136 41.1964C25.5608 41.1964 26.8032 39.5268 26.8032 37.0972V34.8204C26.8032 34.8204 25.8904 35.6716 23.16 35.9476C20.3992 36.2196 19.792 36.9156 19.792 38.7692ZM19.3952 32.5164H18.456L19.1552 29.2052C19.1552 29.2052 22.2504 29.0844 24.0424 29.0844C27.6232 29.0844 28.7144 29.998 28.7144 32.4852V38.8612C28.7144 39.89 29.1984 40.3164 30.0808 40.3164C30.3248 40.3164 30.72 40.194 30.72 40.194L30.9616 40.6804C30.9616 40.6804 29.8384 41.0748 29.1984 41.3508C28.5936 41.6228 27.652 42.1692 27.652 42.1692C27.652 42.1692 27.168 41.1964 26.7096 40.6196C25.8312 41.4108 24.2848 42.3788 21.7632 42.3788C19.0608 42.3788 17.6992 41.4996 17.6992 38.738C17.6992 36.2196 18.6992 35.1548 22.7968 34.9444C25.256 34.8204 26.864 34.1532 26.864 32.2708C26.864 30.3012 24.8608 30.0884 23.2224 30.0884C21.4608 30.0884 20.096 30.178 19.3952 32.5164Z" fill="black"/>
<path fill-rule="evenodd" clip-rule="evenodd" d="M33.786 33.337V32.5458C33.786 29.4202 36.3956 29.085 39.0076 29.085C40.1916 29.085 40.9212 29.2386 42.1332 29.2386H43.3788L43.8332 32.3634L43.1052 32.4234C42.5596 30.3274 41.1012 29.9978 39.0076 29.9978C36.702 29.9978 35.6076 30.5418 35.6076 32.6058C35.6076 33.909 36.3668 34.4594 38.2492 34.7042C38.7052 34.7626 39.2508 34.7922 39.7044 34.8522C41.678 35.0954 44.4076 35.3082 44.4076 37.7666V38.8914C44.4076 41.3514 42.8028 42.3794 39.0076 42.3794C37.1244 42.3794 35.4868 41.9538 34.518 41.9538H34.0916L33.666 38.2826L34.4564 38.1922C34.7276 40.9842 36.6404 41.4722 38.7348 41.4722C41.83 41.4722 42.6508 40.6538 42.6508 38.861C42.6508 37.4026 41.7692 36.9162 39.4012 36.6754C39.0076 36.6426 38.5524 36.613 38.1292 36.5506C35.306 36.2514 33.786 35.7914 33.786 33.337Z" fill="black"/>
<path fill-rule="evenodd" clip-rule="evenodd" d="M49.2084 30.4815H47.5684V30.2111L51.0588 27.1743H51.3036V29.4527H56.8908L56.3724 30.4815H51.3036V38.6119C51.3036 39.9831 51.9708 40.9839 53.2772 40.9839C54.3364 40.9839 55.0668 39.9527 55.6132 39.0735L56.1628 39.3727L55.1572 41.8943C55.1572 41.8943 53.9148 42.2911 53.0924 42.2911C50.8764 42.2911 49.2084 41.1967 49.2084 38.7383V30.4815Z" fill="black"/>
<path fill-rule="evenodd" clip-rule="evenodd" d="M60.8334 38.7698C60.8334 40.7746 61.715 41.1962 63.6574 41.1962C66.6046 41.1962 67.8486 39.5266 67.8486 37.097V34.8202C67.8486 34.8202 66.935 35.6722 64.2022 35.9482C61.4438 36.2194 60.8334 36.9162 60.8334 38.7698ZM60.4406 32.517H59.499L60.1982 29.2058C60.1982 29.2058 63.291 29.085 65.0846 29.085C68.667 29.085 69.759 29.9978 69.759 32.4858V38.861C69.759 39.8898 70.247 40.317 71.1254 40.317C71.367 40.317 71.763 40.1938 71.763 40.1938L72.0054 40.681C72.0054 40.681 70.8806 41.0754 70.247 41.3514C69.6366 41.6226 68.6966 42.1698 68.6966 42.1698C68.6966 42.1698 68.2102 41.1962 67.7558 40.6202C66.8774 41.4114 65.3278 42.3794 62.8086 42.3794C60.107 42.3794 58.7422 41.5002 58.7422 38.7386C58.7422 36.2194 59.743 35.1546 63.8422 34.945C66.2982 34.8202 67.907 34.153 67.907 32.2714C67.907 30.3018 65.9046 30.0882 64.2622 30.0882C62.5062 30.0882 61.1398 30.1786 60.4406 32.517Z" fill="black"/>
<path fill-rule="evenodd" clip-rule="evenodd" d="M4.1584 54.1906V56.8642C4.1584 60.353 5.7048 61.0522 7.8912 61.0522C10.4088 61.0522 11.4416 59.7754 11.4416 56.6778V54.161C11.4416 50.8514 9.9248 50.033 7.7672 50.033C5.4616 50.033 4.1584 51.1842 4.1584 54.1906ZM0 50.8842V50.4554H0.2112C1.7592 50.4554 3.0632 49.9442 3.3672 49.1538H3.8512C3.8512 49.1538 3.8512 49.817 3.972 50.4874C5.4 49.4266 6.4024 48.9722 8.1928 48.9722C11.8376 48.9722 13.6592 50.4874 13.6592 54.4362V56.7098C13.6592 60.1098 12.0176 62.1146 8.0728 62.1146C6.492 62.1146 5.3728 61.8082 4.1584 60.9306V63.6554C4.1584 64.9922 4.3384 65.6298 6.5544 65.6298V66.1442C6.5544 66.1442 4.4304 66.0818 3.2464 66.0818C2.0616 66.0818 1.1224 66.0818 0.0264 66.1442V65.6298C1.82 65.6298 2.2456 64.9922 2.2456 63.6234V52.4906C2.2456 51.0026 1.332 50.8842 0 50.8842Z" fill="black"/>
<path fill-rule="evenodd" clip-rule="evenodd" d="M23.8562 50.033C20.8834 50.033 20.0018 51.125 20.0018 55.7986C20.0018 59.985 20.9122 61.2058 23.7962 61.2058C26.8634 61.2058 27.773 60.1106 27.773 55.6794C27.773 51.1522 27.1066 50.033 23.8562 50.033ZM17.9082 55.7986C17.9082 49.8778 19.637 48.9722 23.8298 48.9722C28.257 48.9722 29.8698 49.9122 29.8698 55.7402C29.8698 61.4146 27.7418 62.2634 23.7962 62.2634C19.7594 62.2634 17.9082 61.385 17.9082 55.7986Z" fill="black"/>
<path fill-rule="evenodd" clip-rule="evenodd" d="M32.9683 46.0626V45.6042H33.1787C35.0019 45.6042 36.3043 45.0938 36.6683 44.397H37.0939V59.473C37.0939 60.8098 37.5203 61.4442 38.9803 61.4442V61.9618C38.9803 61.9618 37.3083 61.9018 36.1227 61.9018C34.9419 61.9018 33.2979 61.9018 32.2051 61.9618V61.4442C33.9347 61.4442 35.1819 60.8098 35.1819 59.4418V47.7034C35.1819 46.2458 34.1515 46.0626 32.9683 46.0626Z" fill="black"/>
<path fill-rule="evenodd" clip-rule="evenodd" d="M44.3198 58.6562C44.3198 60.6554 45.199 61.0818 47.1414 61.0818C50.0846 61.0818 51.3286 59.4122 51.3286 56.985V54.7066C51.3286 54.7066 50.4206 55.5578 47.6862 55.8306C44.9278 56.101 44.3198 56.7994 44.3198 58.6562ZM43.923 52.4002H42.983L43.6822 49.0914C43.6822 49.0914 46.779 48.9722 48.5686 48.9722C52.151 48.9722 53.2422 49.877 53.2422 52.3714V58.7434C53.2422 59.7754 53.7294 60.1994 54.6094 60.1994C54.8526 60.1994 55.2454 60.0786 55.2454 60.0786L55.4902 60.5626C55.4902 60.5626 54.3662 60.9586 53.7294 61.2322C53.1222 61.5066 52.1822 62.053 52.1822 62.053C52.1822 62.053 51.6942 61.0818 51.2414 60.5042C50.359 61.2946 48.8126 62.2634 46.2958 62.2634C43.591 62.2634 42.2246 61.385 42.2246 58.6234C42.2246 56.101 43.2262 55.0394 47.3238 54.8274C49.7814 54.7066 51.391 54.0386 51.391 52.157C51.391 50.1826 49.3878 49.973 47.747 49.973C45.9902 49.973 44.6238 50.0626 43.923 52.4002Z" fill="black"/>
<path fill-rule="evenodd" clip-rule="evenodd" d="M61.4111 53.857V59.473C61.4111 60.809 62.5959 61.4434 64.4191 61.4434V61.9618C64.4191 61.9618 61.6239 61.9018 60.4399 61.9018C59.2583 61.9018 58.4655 61.9018 57.3711 61.9618V61.4434C59.1047 61.4434 59.4983 60.809 59.4983 59.441V52.5218C59.4983 51.0626 58.5583 50.8842 57.3711 50.8842V50.4554H57.5863C59.1319 50.4554 60.1975 49.9442 60.5023 49.1538H61.0767V50.9426C61.6567 50.1242 63.0495 48.9722 64.9631 48.9722C65.4471 48.9722 65.8415 49.0322 66.2679 49.1218L66.5703 52.185H65.7799C65.5071 50.7898 65.0247 50.2146 63.9903 50.2146C62.3863 50.2146 61.4111 51.7338 61.4111 53.857Z" fill="black"/>
<path fill-rule="evenodd" clip-rule="evenodd" d="M75.3765 50.0922C72.9485 50.0922 71.6725 51.1842 71.6725 53.7962V54.5522H78.9269V53.5514C78.9269 50.9426 77.8661 50.0922 75.3765 50.0922ZM69.3965 56.649V55.3146C69.3965 50.5762 71.5837 48.9722 75.3765 48.9722C80.3229 48.9722 81.2653 51.0338 81.2653 54.4594V55.6186H71.6725V56.6778C71.6725 60.353 73.4021 61.1426 75.8597 61.1426C78.9581 61.1426 79.4437 60.3266 80.2941 58.5938L81.1117 58.8386L80.3541 61.6882C80.3541 61.6882 79.6565 61.8402 79.2309 61.9018C77.9269 62.0826 77.0757 62.2634 75.7717 62.2634C71.4589 62.2634 69.3965 61.0178 69.3965 56.649Z" fill="black"/>
<path fill-rule="evenodd" clip-rule="evenodd" d="M82.6969 47.761V49.4874C82.6969 49.6698 82.7625 49.7026 82.9553 49.7026V49.7578C82.9553 49.7578 82.7001 49.7514 82.5721 49.7514C82.4433 49.7514 82.3017 49.7514 82.1817 49.7578V49.7026C82.3705 49.7026 82.4473 49.6674 82.4473 49.485V47.761H82.0633C81.8049 47.761 81.7545 47.9642 81.6969 48.1626H81.5977C81.5977 48.1626 81.6673 47.7826 81.6585 47.6514H83.5233C83.5161 47.7898 83.5601 48.1626 83.5601 48.1626H83.4529C83.4041 47.7962 83.2785 47.761 83.0305 47.761H82.6969Z" fill="black"/>
<path fill-rule="evenodd" clip-rule="evenodd" d="M83.6426 47.6519H86.1745V49.7583H83.6426V47.6519Z" fill="black"/>
<path fill-rule="evenodd" clip-rule="evenodd" d="M84.0626 47.8167H84.049V49.4879C84.049 49.6695 84.1154 49.7023 84.3074 49.7023V49.7583C84.3074 49.7583 84.1122 49.7519 83.9834 49.7519C83.8546 49.7519 83.7618 49.7519 83.6426 49.7583V49.7023C83.8314 49.7023 83.9074 49.6671 83.9074 49.4855V47.9551C83.9074 47.7735 83.841 47.7071 83.6482 47.7071V47.6519C83.6482 47.6519 83.897 47.6575 84.0258 47.6575C84.1554 47.6575 84.1418 47.6519 84.2618 47.6519L84.901 49.4191H84.9274L85.5674 47.6519C85.5674 47.6519 85.7098 47.6575 85.837 47.6575C85.965 47.6575 86.0546 47.6519 86.1746 47.6519V47.7071C85.985 47.7071 85.909 47.7103 85.909 47.8935V49.4879C85.909 49.6695 85.977 49.7023 86.1674 49.7023V49.7583C86.1674 49.7583 85.9354 49.7519 85.8082 49.7519C85.6778 49.7519 85.5402 49.7519 85.4202 49.7583V49.7023C85.609 49.7023 85.6578 49.6671 85.6578 49.4855V47.7927H85.6458L84.9506 49.7583H84.777C84.777 49.7583 84.0994 47.9159 84.0626 47.8167Z" fill="black"/>
</svg>
