<svg xmlns="http://www.w3.org/2000/svg" xmlns:xlink="http://www.w3.org/1999/xlink" viewBox="0 0 589.7 187.26"><defs><style>.cls-1{isolation:isolate;}.cls-2{fill:url(#linear-gradient);}.cls-3{fill:url(#linear-gradient-2);}.cls-4{fill:url(#linear-gradient-3);}.cls-5{fill:url(#linear-gradient-4);}.cls-6{mix-blend-mode:multiply;fill:url(#radial-gradient);}.cls-7{font-size:93.47px;fill:#00196c;font-family:Gotham-Black, Gotham Black;font-weight:800;}.cls-8{letter-spacing:0em;}</style><linearGradient id="linear-gradient" x1="666.44" y1="457.35" x2="768.41" y2="562.69" gradientUnits="userSpaceOnUse"><stop offset="0.1"/><stop offset="0.2" stop-color="#3e1420"/><stop offset="0.4" stop-color="#bc3c62"/><stop offset="0.5" stop-color="#ee4c7d"/><stop offset="0.55" stop-color="#d3436f"/><stop offset="0.85" stop-color="#3c1320"/><stop offset="0.98"/></linearGradient><linearGradient id="linear-gradient-2" x1="683.61" y1="601.89" x2="772.34" y2="504.08" gradientUnits="userSpaceOnUse"><stop offset="0"/><stop offset="0.05" stop-color="#260c14"/><stop offset="0.13" stop-color="#621f33"/><stop offset="0.21" stop-color="#942f4e"/><stop offset="0.28" stop-color="#bb3c62"/><stop offset="0.35" stop-color="#d74571"/><stop offset="0.41" stop-color="#e84a7a"/><stop offset="0.46" stop-color="#ee4c7d"/><stop offset="0.51" stop-color="#e14876"/><stop offset="0.6" stop-color="#c03d65"/><stop offset="0.72" stop-color="#892c48"/><stop offset="0.87" stop-color="#3f1421"/><stop offset="0.98"/></linearGradient><linearGradient id="linear-gradient-3" x1="801.97" y1="590.56" x2="707.26" y2="502.08" gradientUnits="userSpaceOnUse"><stop offset="0"/><stop offset="0.07" stop-color="#3a121e"/><stop offset="0.14" stop-color="#70243b"/><stop offset="0.21" stop-color="#9d3253"/><stop offset="0.28" stop-color="#c03d65"/><stop offset="0.34" stop-color="#da4572"/><stop offset="0.4" stop-color="#e94a7a"/><stop offset="0.45" stop-color="#ee4c7d"/><stop offset="0.5" stop-color="#e84a7a"/><stop offset="0.57" stop-color="#d84571"/><stop offset="0.65" stop-color="#bd3c63"/><stop offset="0.73" stop-color="#973050"/><stop offset="0.82" stop-color="#672136"/><stop offset="0.92" stop-color="#2d0e18"/><stop offset="0.98"/></linearGradient><linearGradient id="linear-gradient-4" x1="794.97" y1="462.34" x2="706.23" y2="552.89" gradientUnits="userSpaceOnUse"><stop offset="0"/><stop offset="0.06" stop-color="#2c0e17"/><stop offset="0.17" stop-color="#70243b"/><stop offset="0.26" stop-color="#a63557"/><stop offset="0.34" stop-color="#cd426c"/><stop offset="0.41" stop-color="#e54978"/><stop offset="0.45" stop-color="#ee4c7d"/><stop offset="0.5" stop-color="#e84a7a"/><stop offset="0.57" stop-color="#d84571"/><stop offset="0.65" stop-color="#bd3c63"/><stop offset="0.73" stop-color="#973050"/><stop offset="0.82" stop-color="#672136"/><stop offset="0.92" stop-color="#2d0e18"/><stop offset="0.98"/></linearGradient><radialGradient id="radial-gradient" cx="739.62" cy="672.36" r="63" gradientTransform="translate(-665.15 0.5) scale(1 0.25)" gradientUnits="userSpaceOnUse"><stop offset="0"/><stop offset="1" stop-color="#fff" stop-opacity="0"/></radialGradient></defs><g class="cls-1"><g id="Layer_1" data-name="Layer 1"><path class="cls-2" d="M739.19,573.29l-10.54,10.54a15.1,15.1,0,0,1-21.36,0L696.76,573.3l-21.21-21.22-10.4-10.4V501.06a21.16,21.16,0,0,1,10.6-18.34l9.69-5.6,26.89-15.53,26.36-15.22.09.05L718,467.23l-21.22,21.21L686.23,499a15.1,15.1,0,0,0,0,21.36l10.54,10.54Z" transform="translate(-665.15 -446.37)"/><path class="cls-3" d="M792.15,562.77,781.62,573.3,760.4,594.51l-21.21,21.21-.44.45h0l0,0-26.88-15.52-26.9-15.53-9.17-5.29a21.2,21.2,0,0,1-10.59-18.35V541.68l10.4,10.4,21.21,21.22,10.53,10.53a15.1,15.1,0,0,0,21.36,0l10.54-10.54,42.42-42.42,10.54,10.54A15.1,15.1,0,0,1,792.15,562.77Z" transform="translate(-665.15 -446.37)"/><path class="cls-4" d="M812.23,519.06v42.45a21.17,21.17,0,0,1-10.59,18.34l-8.54,4.93-26.89,15.53-26.9,15.53-.12-.12,21.21-21.21,21.22-21.21,10.53-10.53a15.1,15.1,0,0,0,0-21.36l-10.54-10.54L760.4,509.66l-21.21-21.21,10.54-10.54a15.1,15.1,0,0,1,21.36,0l10.53,10.53,21.21,21.22Z" transform="translate(-665.15 -446.37)"/><path class="cls-5" d="M812.23,501.06v18l-9.4-9.4-21.21-21.22-10.53-10.53a15.1,15.1,0,0,0-21.36,0l-10.54,10.54L718,509.66l-21.21,21.21-10.54-10.54a15.1,15.1,0,0,1,0-21.36l10.53-10.53L718,467.23l20.8-20.81,1.93,1.12h0l25,14.41,26.9,15.53,9.06,5.23A21.18,21.18,0,0,1,812.23,501.06Z" transform="translate(-665.15 -446.37)"/><ellipse class="cls-6" cx="74.47" cy="171.26" rx="63" ry="16"/><text class="cls-7" transform="translate(147.04 118.49)">Boints<tspan class="cls-8" x="303.77" y="0">o</tspan><tspan x="364.62" y="0">ft</tspan></text></g></g></svg>