<?xml version="1.0" encoding="utf-8"?>
<!-- Generator: Adobe Illustrator 25.0.0, SVG Export Plug-In . SVG Version: 6.00 Build 0)  -->
<svg version="1.1" id="Layer_1" xmlns="http://www.w3.org/2000/svg" xmlns:xlink="http://www.w3.org/1999/xlink" x="0px" y="0px"
	 viewBox="0 0 1920 1080" style="enable-background:new 0 0 1920 1080;" xml:space="preserve">
<style type="text/css">
	.st0{fill:url(#SVGID_1_);}
	.st1{opacity:0.6;}
	.st2{fill:url(#SVGID_2_);}
</style>
<g>
	<g>
		<linearGradient id="SVGID_1_" gradientUnits="userSpaceOnUse" x1="531.7794" y1="-8171.5352" x2="2010.6174" y2="7514.7124">
			<stop  offset="0" style="stop-color:#EF5682"/>
			<stop  offset="0.0605" style="stop-color:#E55382"/>
			<stop  offset="0.1639" style="stop-color:#CA4C81"/>
			<stop  offset="0.2978" style="stop-color:#9D4180"/>
			<stop  offset="0.4569" style="stop-color:#60317E"/>
			<stop  offset="0.6355" style="stop-color:#121E7C"/>
			<stop  offset="0.6751" style="stop-color:#00197C"/>
			<stop  offset="0.7482" style="stop-color:#001879"/>
			<stop  offset="0.8052" style="stop-color:#00166F"/>
			<stop  offset="0.8568" style="stop-color:#00135F"/>
			<stop  offset="0.9052" style="stop-color:#000E47"/>
			<stop  offset="0.9513" style="stop-color:#000829"/>
			<stop  offset="0.9952" style="stop-color:#000104"/>
			<stop  offset="1" style="stop-color:#000000"/>
		</linearGradient>
		<path class="st0" d="M5334.28,398.72c-365.87-632.94-893.5-1160.57-1526.44-1526.43c-11.94-6.51-22.79-13.03-34.74-19.54
			c22.79-175.88,34.74-356.1,34.74-538.49c0-759.96-203.02-1471.06-558.02-2084.46c-365.87-632.94-893.5-1160.57-1526.43-1526.43
			c-613.4-355.01-1325.59-558.03-2084.46-558.03h-2084.46v2084.46h2084.46c1151.88,0,2084.46,932.58,2084.46,2084.46
			c0,1150.79-932.58,2084.46-2084.46,2084.46h-2084.46v6253.37h4168.92c758.87,0,1471.06-203.02,2084.45-558.03
			c632.94-365.87,1160.57-893.49,1526.44-1526.43c355-613.39,558.02-1324.49,558.02-2084.45S5689.28,1012.11,5334.28,398.72z
			 M1723.39,4567.63H-361.07V2483.18c758.87,0,1471.06-203.02,2084.46-558.03c488.54-282.27,914.12-661.17,1251.76-1109.54
			c505.92,381.07,832.7,985.78,832.7,1667.57C3807.84,3633.97,2875.27,4567.63,1723.39,4567.63z"/>
	</g>
	<g class="st1">
		<linearGradient id="SVGID_2_" gradientUnits="userSpaceOnUse" x1="1781.6914" y1="-8289.3721" x2="3260.5295" y2="7396.8755">
			<stop  offset="0" style="stop-color:#EF5682"/>
			<stop  offset="0.1109" style="stop-color:#BB4981"/>
			<stop  offset="0.2305" style="stop-color:#8A3C7F"/>
			<stop  offset="0.3533" style="stop-color:#5F317E"/>
			<stop  offset="0.4772" style="stop-color:#3D297E"/>
			<stop  offset="0.6026" style="stop-color:#22227D"/>
			<stop  offset="0.73" style="stop-color:#0F1D7C"/>
			<stop  offset="0.8608" style="stop-color:#041A7C"/>
			<stop  offset="1" style="stop-color:#00197C"/>
		</linearGradient>
		<path class="st2" d="M5892.3,2483.17c0,759.96-203.02,1471.06-558.03,2084.46c-365.87,632.93-893.49,1160.56-1526.43,1526.43
			c-92.28,53.2-186.74,103.13-283.35,149.81c944.52-764.3,1549.23-1932.46,1549.23-3242.85
			c0-1565.51-863.09-2929.09-2139.82-3641.28c86.85-334.38,132.45-683.96,132.45-1045.49c0-2302.68-1866.24-4168.91-4168.91-4168.91
			h741.5c758.88,0,1471.07,203.02,2084.46,558.02c632.94,365.87,1160.57,893.5,1526.43,1526.43
			c355.01,613.4,558.03,1324.5,558.03,2084.46c0,182.39-11.94,362.61-34.74,538.49c11.94,6.51,22.8,13.03,34.74,19.54
			c632.94,365.87,1160.57,893.49,1526.43,1526.43C5689.28,1012.11,5892.3,1723.21,5892.3,2483.17z"/>
	</g>
</g>
</svg>
