<svg width="101" height="106" viewBox="0 0 101 106" fill="none" xmlns="http://www.w3.org/2000/svg">
<path d="M28.7112 21.9476C26.7115 21.9476 25.0532 20.2894 25.0532 18.2897V3.65794C25.0532 1.65827 26.7115 0 28.7112 0C30.7108 0 32.3691 1.65827 32.3691 3.65794V18.2897C32.3691 20.2894 30.7108 21.9476 28.7112 21.9476Z" fill="#00196C"/>
<path d="M67.7292 21.9476C65.7296 21.9476 64.0713 20.2894 64.0713 18.2897V3.65794C64.0713 1.65827 65.7296 0 67.7292 0C69.7289 0 71.3872 1.65827 71.3872 3.65794V18.2897C71.3872 20.2894 69.7289 21.9476 67.7292 21.9476Z" fill="#00196C"/>
<path d="M31.1497 64.6229C30.5157 64.6229 29.8816 64.4766 29.2964 64.2328C28.6623 63.9889 28.1746 63.6475 27.6869 63.2085C26.809 62.2819 26.2725 61.0138 26.2725 59.7457C26.2725 58.4776 26.809 57.2095 27.6869 56.2828C28.1746 55.8439 28.7111 55.5025 29.2964 55.2586C30.4669 54.7709 31.8325 54.7709 33.0031 55.2586C33.5883 55.5025 34.1248 55.8439 34.6125 56.2828C34.8076 56.5267 35.0515 56.7706 35.1978 57.0144C35.3929 57.3071 35.5393 57.5997 35.6368 57.8923C35.7832 58.185 35.8807 58.4776 35.9295 58.7702C35.9782 59.1116 36.027 59.4531 36.027 59.7457C36.027 61.0138 35.4904 62.2819 34.6125 63.2085C34.1248 63.6475 33.5883 63.9889 33.0031 64.2328C32.4178 64.4766 31.7838 64.6229 31.1497 64.6229Z" fill="#EE4C7D"/>
<path d="M48.22 64.623C47.586 64.623 46.9519 64.4772 46.3667 64.2333C45.7326 63.9894 45.2449 63.6475 44.7572 63.2086C43.8793 62.2819 43.3428 61.0138 43.3428 59.7457C43.3428 59.4531 43.3915 59.1117 43.4403 58.7703C43.4891 58.4776 43.5866 58.185 43.733 57.8924C43.8305 57.5997 43.9768 57.3071 44.1719 57.0145C44.367 56.7706 44.5621 56.5272 44.7572 56.2834C46.5618 54.4788 49.8295 54.4788 51.6829 56.2834C51.878 56.5272 52.0731 56.7706 52.2681 57.0145C52.4632 57.3071 52.6096 57.5997 52.7071 57.8924C52.8534 58.185 52.951 58.4776 52.9997 58.7703C53.0485 59.1117 53.0973 59.4531 53.0973 59.7457C53.0973 61.0138 52.5608 62.2819 51.6829 63.2086C50.7562 64.0865 49.5369 64.623 48.22 64.623Z" fill="#EE4C7D"/>
<path d="M31.1497 81.6935C30.5157 81.6935 29.8816 81.5472 29.2964 81.3033C28.7111 81.0595 28.1746 80.718 27.6869 80.2791C26.809 79.3524 26.2725 78.0843 26.2725 76.8162C26.2725 76.5236 26.3212 76.1822 26.37 75.8896C26.4187 75.5482 26.5163 75.2555 26.6626 74.9629C26.7601 74.6703 26.9066 74.3776 27.1016 74.085C27.248 73.8411 27.4918 73.5973 27.6869 73.3534C28.1746 72.9144 28.7111 72.573 29.2964 72.3292C30.4669 71.8414 31.8325 71.8414 33.0031 72.3292C33.5883 72.573 34.1248 72.9144 34.6125 73.3534C34.8076 73.5973 35.0515 73.8411 35.1978 74.085C35.3929 74.3776 35.5393 74.6703 35.6368 74.9629C35.7832 75.2555 35.8807 75.5482 35.9295 75.8896C35.9782 76.1822 36.027 76.5236 36.027 76.8162C36.027 78.0843 35.4904 79.3524 34.6125 80.2791C34.1248 80.718 33.5883 81.0595 33.0031 81.3033C32.4178 81.5472 31.7838 81.6935 31.1497 81.6935Z" fill="#EE4C7D"/>
<path d="M89.6767 41.8947H6.76341C4.76374 41.8947 3.10547 40.2365 3.10547 38.2368C3.10547 36.2371 4.76374 34.5789 6.76341 34.5789H89.6767C91.6764 34.5789 93.3347 36.2371 93.3347 38.2368C93.3347 40.2365 91.6764 41.8947 89.6767 41.8947Z" fill="#00196C"/>
<path d="M66.8491 105.008C64.9958 105.008 63.2399 104.325 61.9719 103.057C60.4599 101.545 59.7771 99.3502 60.1185 97.0579L61.0452 90.4736C61.289 88.7666 62.3133 86.7181 63.5326 85.4988L80.7981 68.2333C83.1391 65.8923 85.4315 64.673 87.9189 64.4291C90.9915 64.1365 93.9667 65.4045 96.7955 68.2333C99.7706 71.2085 103.77 77.2563 96.7955 84.2307L79.53 101.496C78.3107 102.716 76.2622 103.74 74.5552 103.984L67.9704 104.91C67.5802 104.959 67.2393 105.008 66.8491 105.008ZM88.748 71.6962C88.6992 71.6962 88.6504 71.6962 88.6017 71.6962C87.9189 71.745 86.9922 72.379 85.968 73.4032L68.7025 90.6687C68.5562 90.815 68.3123 91.3028 68.3123 91.4979L67.4344 97.5944L73.531 96.7165C73.726 96.6677 74.2133 96.4239 74.3596 96.2776L91.6256 79.0121C93.7716 76.8661 94.0642 75.7931 91.6256 73.3545C90.8452 72.6229 89.7234 71.6962 88.748 71.6962Z" fill="#EE4C7D"/>
<path d="M91.7279 87.7901C91.3865 87.7901 91.0451 87.7413 90.7525 87.6438C84.3145 85.8392 79.1934 80.7181 77.3888 74.2801C76.8523 72.3292 77.9741 70.3295 79.925 69.7443C81.8759 69.2078 83.8755 70.3295 84.4608 72.2804C85.5826 76.2798 88.7528 79.45 92.7522 80.5718C94.7031 81.1083 95.8248 83.1567 95.2883 85.1076C94.8006 86.7171 93.3374 87.7901 91.7279 87.7901Z" fill="#EE4C7D"/>
<path d="M48.22 104.861H28.711C10.909 104.861 0.666748 94.6188 0.666748 76.8168V35.3601C0.666748 17.5582 10.909 7.31592 28.711 7.31592H67.729C85.531 7.31592 95.7732 17.5582 95.7732 35.3601V52.4305C95.7732 54.4302 94.115 56.0885 92.1153 56.0885C90.1156 56.0885 88.4573 54.4302 88.4573 52.4305V35.3601C88.4573 21.4112 81.678 14.6318 67.729 14.6318H28.711C14.762 14.6318 7.98263 21.4112 7.98263 35.3601V76.8168C7.98263 90.7658 14.762 97.5451 28.711 97.5451H48.22C50.2197 97.5451 51.8779 99.2034 51.8779 101.203C51.8779 103.203 50.2197 104.861 48.22 104.861Z" fill="#00196C"/>
</svg>
