<svg width="88" height="106" viewBox="0 0 88 106" fill="none" xmlns="http://www.w3.org/2000/svg">
<path fill-rule="evenodd" clip-rule="evenodd" d="M1.5815 103.055C26.3729 103.938 46.1544 97.5945 60.3781 84.203C75.7381 69.742 84.2244 47.2195 84.9196 19.0705C84.9389 18.2888 84.0514 17.5899 83.187 17.5127C82.3197 17.419 82.2171 17.9577 82.1665 18.2171C82.1662 18.2198 82.1646 18.2209 82.1643 18.2235C82.1369 18.4622 82.1098 18.6996 82.0824 18.9383C81.7088 22.1822 81.3549 25.248 81.1859 26.3884C81.0785 27.1129 80.4034 27.6136 79.679 27.5062C78.9546 27.3989 78.4538 26.7238 78.5612 25.9993C78.724 24.9009 79.0748 21.8561 79.4464 18.6347C79.8502 15.1418 80.2662 11.5299 80.4799 10.089C80.6915 8.66116 79.877 8.02138 79.1159 7.90854C78.3324 7.79239 77.416 8.19301 77.1977 9.66546L75.1841 23.2482C75.0767 23.9726 74.4016 24.4734 73.6772 24.366C72.9528 24.2586 72.452 23.5835 72.5594 22.8591L74.573 9.27636L74.9156 6.96533C74.9307 6.86296 74.9796 6.77766 75.0159 6.68648C75.0078 6.58737 74.9858 6.49157 75.001 6.38921C75.1827 5.16348 74.9489 4.45152 74.7199 4.06887C73.9894 2.84471 72.028 3.30098 71.6642 5.74568L69.4018 21.0069C69.2944 21.7313 68.6193 22.2321 67.8949 22.1247C67.1705 22.0173 66.6697 21.3422 66.7771 20.6178L68.4461 9.35923C68.557 8.6112 68.4644 7.99661 68.1799 7.58159C67.9129 7.1933 67.5364 7.06373 67.2674 7.02385C66.4117 6.897 65.4426 7.47221 65.243 8.81867C65.02 10.3226 64.791 11.9491 64.5423 13.7174C64.0169 17.4512 63.3687 22.0412 62.491 27.473C62.4085 27.9395 61.2032 29.7753 59.2882 30.2505C59.2311 30.2649 59.1768 30.2514 59.1208 30.2579C59.0076 30.2706 58.8936 30.2886 58.7819 30.2734C58.6887 30.2596 58.6051 30.2177 58.5174 30.1846C58.445 30.1577 58.3703 30.1453 58.3024 30.1057C58.1889 30.0393 58.0967 29.9465 58.0064 29.8499C57.9801 29.8192 57.9421 29.8042 57.9173 29.7724C57.9138 29.7692 57.9117 29.7648 57.9082 29.7616C54.3056 25.0846 51.9752 23.8956 50.6608 23.7691C50.3668 23.7349 50.0915 23.7464 49.8279 23.8053L59.9431 38.4175C59.9521 38.4296 59.9524 38.4457 59.9613 38.4578C60.0136 38.5393 60.0414 38.6319 60.0747 38.724C60.1016 38.7964 60.1385 38.8636 60.1517 38.938C60.1661 39.0125 60.1548 39.0886 60.1542 39.165C60.1558 39.2631 60.1618 39.3579 60.1411 39.4528C60.1374 39.4683 60.142 39.4824 60.1384 39.498C52.809 68.529 34.7892 82.3758 5.05119 81.8299C4.99247 81.8279 4.93546 81.8235 4.87903 81.8151C4.22941 81.7188 3.73518 81.1533 3.74793 80.4792C3.76267 79.7465 4.36691 79.1628 5.09858 79.176C33.2208 79.6929 50.3343 66.6842 57.4094 39.4233L46.7972 24.0923C46.4041 23.523 46.5125 22.7464 47.048 22.3095C48.2075 21.3641 49.5243 20.9679 50.9629 21.1342C53.5288 21.4314 56.3207 23.5339 59.4963 27.5078C59.5981 27.4907 59.7012 27.4738 59.8039 27.4595C60.7109 21.8752 61.3759 17.1629 61.9131 13.3491C62.163 11.5729 62.3928 9.9412 62.6168 8.43069C63.0667 5.39524 65.5486 4.08802 67.655 4.40028C68.193 4.48004 68.6913 4.66523 69.1387 4.93139C69.7874 1.85834 72.1617 0.489576 74.1867 0.789765C75.3626 0.964082 76.3615 1.64461 76.9965 2.70842C77.449 3.46487 77.6769 4.38787 77.7019 5.41355C78.2779 5.24679 78.8866 5.19353 79.5048 5.28516C81.5783 5.59255 83.5435 7.51744 83.1044 10.4794C82.9795 11.3219 82.7791 12.9633 82.5524 14.8905C82.8473 14.8551 83.151 14.8425 83.4705 14.8764C85.4837 15.1024 87.6325 16.7836 87.5732 19.138C86.8607 48.01 78.0856 71.1777 62.1973 86.1357C47.4388 100.031 27.0126 106.616 1.48721 105.708C1.43656 105.706 1.38762 105.702 1.33906 105.695C0.67894 105.597 0.184226 105.016 0.208834 104.335C0.233159 103.601 0.849155 103.028 1.5815 103.055Z" fill="#FFE588"/>
</svg>
