<svg width="74" height="116" viewBox="0 0 74 116" fill="none" xmlns="http://www.w3.org/2000/svg">
<path fill-rule="evenodd" clip-rule="evenodd" d="M71.9181 112.503C47.3527 109.072 28.9799 99.4664 17.3086 83.9549C4.70482 67.2045 0.274675 43.7885 4.49719 16.2383C4.61444 15.4732 5.61021 14.9458 6.47479 15.0202C7.34512 15.0791 7.3523 15.6218 7.35683 15.8833C7.35675 15.8859 7.35804 15.8873 7.35797 15.8899C7.34328 16.1272 7.32862 16.3632 7.31393 16.6006C7.11631 19.8263 6.93034 22.875 6.89801 24.0156C6.87747 24.7401 7.45493 25.3449 8.18698 25.3657C8.91902 25.3864 9.52982 24.8153 9.55036 24.0908C9.5815 22.9922 9.76687 19.9645 9.96253 16.761C10.1738 13.2874 10.3938 9.69588 10.4346 8.25476C10.4751 6.82677 11.3886 6.34432 12.1578 6.36613C12.9495 6.38857 13.7821 6.93759 13.7403 8.41021L13.3552 21.9945C13.3347 22.719 13.9122 23.3238 14.6442 23.3446C15.3763 23.3653 15.9871 22.7942 16.0076 22.0697L16.3927 8.48539L16.4582 6.1741C16.4611 6.07172 16.4279 5.98015 16.408 5.88501C16.4332 5.78983 16.4716 5.70029 16.4745 5.59791C16.5093 4.37205 16.8636 3.71875 17.1557 3.38551C18.0885 2.31908 19.9403 3.10322 19.8723 5.54843L19.4397 20.8114C19.4191 21.5359 19.9966 22.1407 20.7286 22.1615C21.4607 22.1822 22.0715 21.6111 22.092 20.8866L22.4112 9.62672C22.4324 8.8786 22.6308 8.29575 22.9833 7.94058C23.3139 7.60843 23.7071 7.54733 23.979 7.55504C24.8437 7.57955 25.6977 8.30782 25.6595 9.65443C25.6168 11.1585 25.5589 12.7831 25.4955 14.5493C25.3619 18.2786 25.2001 22.8636 25.1174 28.3085C25.1174 28.7774 25.9841 30.775 27.787 31.5695C27.8407 31.5934 27.8965 31.5897 27.9505 31.6057C28.0598 31.6377 28.1689 31.6749 28.2816 31.6794C28.3757 31.6821 28.4654 31.6557 28.5574 31.6387C28.6335 31.625 28.7091 31.6259 28.7829 31.5991C28.9063 31.554 29.0132 31.4795 29.119 31.4011C29.1502 31.3757 29.1903 31.3676 29.2202 31.3409C29.2243 31.3384 29.227 31.3345 29.2311 31.332C33.5937 27.3981 36.0958 26.6428 37.4121 26.7471C37.7076 26.7647 37.9766 26.8236 38.2259 26.9265L25.7184 39.4145C25.7075 39.4247 25.7044 39.4404 25.6935 39.4506C25.6278 39.521 25.5842 39.6064 25.5354 39.6904C25.4963 39.7563 25.4482 39.8153 25.4223 39.8855C25.3951 39.9557 25.393 40.0318 25.3802 40.1063C25.3616 40.2017 25.3391 40.293 25.343 40.389C25.3439 40.4048 25.3369 40.4177 25.3378 40.4335C27.4941 69.9916 42.824 86.6038 72.2016 91.2196C72.2598 91.2279 72.3167 91.2334 72.3737 91.235C73.0301 91.2536 73.6154 90.7882 73.7203 90.1291C73.8336 89.4125 73.3403 88.7391 72.6176 88.6254C44.8361 84.261 30.2524 68.6223 28.038 40.8332L41.1602 27.7308C41.6465 27.2442 41.6751 26.4687 41.2239 25.9502C40.247 24.8283 39.0195 24.2142 37.5739 24.1273C34.9955 23.9727 31.8799 25.5382 28.0602 28.8609C27.9629 28.8266 27.8644 28.7923 27.7657 28.7606C27.8461 23.1619 28.0127 18.4549 28.1486 14.6455C28.2121 12.8714 28.2703 11.2416 28.3131 9.73097C28.3992 6.69518 26.1832 4.99174 24.0547 4.9314C23.511 4.91599 22.988 5.01019 22.5011 5.1921C22.398 2.08527 20.2987 0.340483 18.2524 0.282475C17.0641 0.248791 15.9619 0.739023 15.1512 1.66574C14.5738 2.32453 14.1884 3.18449 13.985 4.17964C13.447 3.91744 12.8568 3.76016 12.2322 3.74246C10.1368 3.68306 7.8662 5.21859 7.78222 8.18088C7.75834 9.0235 7.66954 10.6577 7.55679 12.5749C7.27254 12.4893 6.97575 12.4244 6.65519 12.4022C4.63346 12.274 2.22446 13.5402 1.87245 15.8447C-2.45904 44.1024 2.14298 68.1972 15.1804 85.5234C27.2904 101.619 46.2559 111.571 71.5484 115.105C71.5986 115.112 71.6476 115.116 71.6967 115.117C72.3638 115.136 72.952 114.656 73.0467 113.988C73.1507 113.268 72.6439 112.604 71.9181 112.503Z" fill="#FFE588"/>
</svg>
