<svg width="25" height="24" viewBox="0 0 25 24" fill="none" xmlns="http://www.w3.org/2000/svg">
<path d="M6.17383 9H2.17383V21H6.17383V9Z" stroke="#23234F" stroke-width="2" stroke-linecap="round" stroke-linejoin="round"/>
<path d="M16.1738 8C17.7651 8 19.2913 8.63214 20.4165 9.75736C21.5417 10.8826 22.1738 12.4087 22.1738 14V21H18.1738V14C18.1738 13.4696 17.9631 12.9609 17.588 12.5858C17.213 12.2107 16.7043 12 16.1738 12C15.6434 12 15.1347 12.2107 14.7596 12.5858C14.3845 12.9609 14.1738 13.4696 14.1738 14V21H10.1738V14C10.1738 12.4087 10.806 10.8826 11.9312 9.75736C13.0564 8.63214 14.5825 8 16.1738 8V8Z" stroke="#23234F" stroke-width="2" stroke-linecap="round" stroke-linejoin="round"/>
<path d="M4.17383 6C5.2784 6 6.17383 5.10457 6.17383 4C6.17383 2.89543 5.2784 2 4.17383 2C3.06926 2 2.17383 2.89543 2.17383 4C2.17383 5.10457 3.06926 6 4.17383 6Z" stroke="#23234F" stroke-width="2" stroke-linecap="round" stroke-linejoin="round"/>
</svg>
