<svg width="24" height="25" viewBox="0 0 24 25" fill="none" xmlns="http://www.w3.org/2000/svg">
<path d="M12 11.3001C12.3956 11.3001 12.7822 11.1828 13.1111 10.963C13.44 10.7433 13.6964 10.4309 13.8478 10.0655C13.9991 9.7 14.0387 9.29787 13.9616 8.90991C13.8844 8.52195 13.6939 8.16558 13.4142 7.88587C13.1345 7.60617 12.7781 7.41569 12.3902 7.33852C12.0022 7.26135 11.6001 7.30095 11.2346 7.45233C10.8692 7.6037 10.5568 7.86005 10.3371 8.18895C10.1173 8.51785 10 8.90453 10 9.30009C10 9.83052 10.2107 10.3392 10.5858 10.7143C10.9609 11.0894 11.4696 11.3001 12 11.3001ZM11.29 18.2101C11.383 18.3038 11.4936 18.3782 11.6154 18.429C11.7373 18.4797 11.868 18.5059 12 18.5059C12.132 18.5059 12.2627 18.4797 12.3846 18.429C12.5064 18.3782 12.617 18.3038 12.71 18.2101L16.8 14.1101C17.75 13.1606 18.397 11.9508 18.6593 10.6335C18.9216 9.31632 18.7873 7.95089 18.2735 6.70998C17.7597 5.46906 16.8894 4.4084 15.7727 3.66215C14.656 2.91589 13.3431 2.51758 12 2.51758C10.6569 2.51758 9.344 2.91589 8.22731 3.66215C7.11062 4.4084 6.24033 5.46906 5.72652 6.70998C5.2127 7.95089 5.07845 9.31632 5.34073 10.6335C5.60301 11.9508 6.25005 13.1606 7.2 14.1101L11.29 18.2101ZM7.23 8.84009C7.29833 8.12711 7.52502 7.43838 7.89352 6.8242C8.26203 6.21002 8.76305 5.6859 9.36 5.29009C10.1442 4.77519 11.0619 4.50085 12 4.50085C12.9381 4.50085 13.8558 4.77519 14.64 5.29009C15.233 5.68454 15.7311 6.20549 16.0987 6.81547C16.4663 7.42546 16.6942 8.10932 16.7659 8.81787C16.8376 9.52643 16.7514 10.2421 16.5135 10.9133C16.2756 11.5846 15.8919 12.1948 15.39 12.7001L12 16.0901L8.61 12.7001C8.10752 12.1997 7.72293 11.5936 7.48421 10.9259C7.24548 10.2582 7.15864 9.54561 7.23 8.84009ZM19 20.5001H5C4.73478 20.5001 4.48043 20.6054 4.29289 20.793C4.10536 20.9805 4 21.2349 4 21.5001C4 21.7653 4.10536 22.0197 4.29289 22.2072C4.48043 22.3947 4.73478 22.5001 5 22.5001H19C19.2652 22.5001 19.5196 22.3947 19.7071 22.2072C19.8946 22.0197 20 21.7653 20 21.5001C20 21.2349 19.8946 20.9805 19.7071 20.793C19.5196 20.6054 19.2652 20.5001 19 20.5001Z" fill="#F0F2F2"/>
</svg>
