<svg width="16" height="21" viewBox="0 0 16 21" fill="none" xmlns="http://www.w3.org/2000/svg">
<path d="M8 8.85075C8.39556 8.85075 8.78224 8.73345 9.11114 8.51369C9.44004 8.29392 9.69638 7.98157 9.84776 7.61611C9.99913 7.25066 10.0387 6.84853 9.96157 6.46057C9.8844 6.0726 9.69392 5.71624 9.41421 5.43653C9.13451 5.15683 8.77814 4.96635 8.39018 4.88918C8.00222 4.81201 7.60009 4.85161 7.23463 5.00299C6.86918 5.15436 6.55682 5.41071 6.33706 5.73961C6.1173 6.06851 6 6.45518 6 6.85075C6 7.38118 6.21071 7.88989 6.58579 8.26496C6.96086 8.64003 7.46957 8.85075 8 8.85075ZM7.29 15.7607C7.38296 15.8545 7.49356 15.9289 7.61542 15.9796C7.73728 16.0304 7.86799 16.0565 8 16.0565C8.13201 16.0565 8.26272 16.0304 8.38458 15.9796C8.50644 15.9289 8.61704 15.8545 8.71 15.7607L12.8 11.6607C13.75 10.7113 14.397 9.50143 14.6593 8.18421C14.9216 6.86698 14.7873 5.50155 14.2735 4.26064C13.7597 3.01972 12.8894 1.95906 11.7727 1.21281C10.656 0.466554 9.34309 0.0682373 8 0.0682373C6.65691 0.0682373 5.344 0.466554 4.22731 1.21281C3.11062 1.95906 2.24033 3.01972 1.72652 4.26064C1.2127 5.50155 1.07845 6.86698 1.34073 8.18421C1.60301 9.50143 2.25005 10.7113 3.2 11.6607L7.29 15.7607ZM3.23 6.39075C3.29833 5.67776 3.52502 4.98904 3.89352 4.37486C4.26203 3.76068 4.76305 3.23656 5.36 2.84075C6.1442 2.32584 7.06186 2.05151 8 2.05151C8.93814 2.05151 9.8558 2.32584 10.64 2.84075C11.233 3.2352 11.7311 3.75615 12.0987 4.36613C12.4663 4.97612 12.6942 5.65998 12.7659 6.36853C12.8376 7.07709 12.7514 7.79274 12.5135 8.464C12.2756 9.13527 11.8919 9.74548 11.39 10.2507L8 13.6407L4.61 10.2507C4.10752 9.75038 3.72293 9.14428 3.48421 8.47655C3.24548 7.80882 3.15864 7.09627 3.23 6.39075ZM15 18.0507H1C0.734784 18.0507 0.48043 18.1561 0.292893 18.3436C0.105357 18.5312 0 18.7855 0 19.0507C0 19.316 0.105357 19.5703 0.292893 19.7579C0.48043 19.9454 0.734784 20.0507 1 20.0507H15C15.2652 20.0507 15.5196 19.9454 15.7071 19.7579C15.8946 19.5703 16 19.316 16 19.0507C16 18.7855 15.8946 18.5312 15.7071 18.3436C15.5196 18.1561 15.2652 18.0507 15 18.0507Z" fill="#23234F"/>
</svg>

