<svg width="152" height="46" viewBox="0 0 152 46" fill="none" xmlns="http://www.w3.org/2000/svg">
<path d="M10.16 45.6V14.88H14.44V16.72C14.9467 16.1333 15.56 15.6267 16.28 15.2C17 14.7733 17.8533 14.56 18.84 14.56C20.04 14.56 20.9867 14.88 21.68 15.52C22.4 16.1333 22.9333 16.92 23.28 17.88C23.6267 18.8133 23.8533 19.7733 23.96 20.76C24.0667 21.72 24.12 22.5467 24.12 23.24V28.84C24.12 30.4667 23.96 32.0133 23.64 33.48C23.32 34.92 22.7333 36.0933 21.88 37C21.0533 37.88 19.88 38.32 18.36 38.32C17.5333 38.32 16.8 38.12 16.16 37.72C15.52 37.2933 14.9467 36.8133 14.44 36.28V45.6H10.16ZM17.52 34.96C18.2667 34.96 18.8 34.6933 19.12 34.16C19.44 33.6 19.64 32.8533 19.72 31.92C19.8 30.9867 19.84 29.96 19.84 28.84V23.24C19.84 22.28 19.7867 21.4 19.68 20.6C19.5733 19.7733 19.3467 19.12 19 18.64C18.6533 18.16 18.1067 17.92 17.36 17.92C16.8 17.92 16.2667 18.04 15.76 18.28C15.2533 18.52 14.8133 18.8 14.44 19.12V33.92C14.84 34.2133 15.2933 34.4667 15.8 34.68C16.3067 34.8667 16.88 34.96 17.52 34.96ZM27.1316 38V5.6H31.4116V17.28C32.1849 16.5333 33.0516 15.8933 34.0116 15.36C34.9716 14.8267 36.0382 14.56 37.2116 14.56C38.1182 14.56 38.8116 14.8 39.2916 15.28C39.7982 15.76 40.1449 16.36 40.3316 17.08C40.5449 17.8 40.6516 18.5333 40.6516 19.28V38H36.3716V20.52C36.3716 19.6933 36.2516 19.0533 36.0116 18.6C35.7716 18.1467 35.2782 17.92 34.5316 17.92C34.0249 17.92 33.4916 18.0667 32.9316 18.36C32.3982 18.6533 31.8916 19.0133 31.4116 19.44V38H27.1316ZM43.8241 45.6V14.88H48.1041V16.72C48.6107 16.1333 49.2241 15.6267 49.9441 15.2C50.6641 14.7733 51.5174 14.56 52.5041 14.56C53.7041 14.56 54.6507 14.88 55.3441 15.52C56.0641 16.1333 56.5974 16.92 56.9441 17.88C57.2907 18.8133 57.5174 19.7733 57.6241 20.76C57.7307 21.72 57.7841 22.5467 57.7841 23.24V28.84C57.7841 30.4667 57.6241 32.0133 57.3041 33.48C56.9841 34.92 56.3974 36.0933 55.5441 37C54.7174 37.88 53.5441 38.32 52.0241 38.32C51.1974 38.32 50.4641 38.12 49.8241 37.72C49.1841 37.2933 48.6107 36.8133 48.1041 36.28V45.6H43.8241ZM51.1841 34.96C51.9307 34.96 52.4641 34.6933 52.7841 34.16C53.1041 33.6 53.3041 32.8533 53.3841 31.92C53.4641 30.9867 53.5041 29.96 53.5041 28.84V23.24C53.5041 22.28 53.4507 21.4 53.3441 20.6C53.2374 19.7733 53.0107 19.12 52.6641 18.64C52.3174 18.16 51.7707 17.92 51.0241 17.92C50.4641 17.92 49.9307 18.04 49.4241 18.28C48.9174 18.52 48.4774 18.8 48.1041 19.12V33.92C48.5041 34.2133 48.9574 34.4667 49.4641 34.68C49.9707 34.8667 50.5441 34.96 51.1841 34.96Z" fill="#EE4C7D"/>
<path d="M59.3556 38L65.4756 5.6H73.6356L79.6756 38H73.0756L71.9956 31.16H67.2356L66.1156 38H59.3556ZM67.8756 26.88H71.3156L69.5956 14.24L67.8756 26.88ZM81.9469 38V5.6H92.8269C94.7735 5.6 96.3735 5.97333 97.6269 6.72C98.8802 7.44 99.8135 8.50666 100.427 9.92C101.04 11.3067 101.347 13 101.347 15C101.347 17.5067 100.934 19.4267 100.107 20.76C99.2802 22.0667 98.1602 22.9733 96.7469 23.48C95.3335 23.9867 93.7469 24.24 91.9869 24.24H89.1069V38H81.9469ZM89.1069 19.24H91.5069C92.3869 19.24 93.0535 19.08 93.5069 18.76C93.9602 18.44 94.2535 17.96 94.3869 17.32C94.5469 16.68 94.6269 15.8667 94.6269 14.88C94.6269 14.0533 94.5602 13.3333 94.4269 12.72C94.3202 12.08 94.0402 11.5733 93.5869 11.2C93.1335 10.8267 92.4269 10.64 91.4669 10.64H89.1069V19.24ZM103.798 38V5.6H114.678C116.625 5.6 118.225 5.97333 119.478 6.72C120.732 7.44 121.665 8.50666 122.278 9.92C122.892 11.3067 123.198 13 123.198 15C123.198 17.5067 122.785 19.4267 121.958 20.76C121.132 22.0667 120.012 22.9733 118.598 23.48C117.185 23.9867 115.598 24.24 113.838 24.24H110.958V38H103.798ZM110.958 19.24H113.358C114.238 19.24 114.905 19.08 115.358 18.76C115.812 18.44 116.105 17.96 116.238 17.32C116.398 16.68 116.478 15.8667 116.478 14.88C116.478 14.0533 116.412 13.3333 116.278 12.72C116.172 12.08 115.892 11.5733 115.438 11.2C114.985 10.8267 114.278 10.64 113.318 10.64H110.958V19.24ZM133.938 38.48C131.911 38.48 130.218 38.12 128.858 37.4C127.498 36.68 126.471 35.5733 125.778 34.08C125.084 32.56 124.698 30.6 124.618 28.2L130.738 27.28C130.764 28.6667 130.884 29.7867 131.098 30.64C131.338 31.4933 131.658 32.1067 132.058 32.48C132.484 32.8533 132.991 33.04 133.578 33.04C134.324 33.04 134.804 32.7867 135.018 32.28C135.258 31.7733 135.378 31.24 135.378 30.68C135.378 29.3467 135.058 28.2267 134.418 27.32C133.778 26.3867 132.911 25.4533 131.818 24.52L129.018 22.08C127.791 21.04 126.751 19.8667 125.898 18.56C125.071 17.2267 124.658 15.5867 124.658 13.64C124.658 10.8933 125.471 8.8 127.098 7.36C128.724 5.89333 130.938 5.16 133.738 5.16C135.471 5.16 136.858 5.45333 137.898 6.04C138.964 6.62667 139.764 7.4 140.298 8.36C140.858 9.29333 141.231 10.2933 141.418 11.36C141.631 12.4 141.751 13.4 141.778 14.36L135.618 15.12C135.591 14.16 135.524 13.3333 135.418 12.64C135.338 11.92 135.151 11.3733 134.858 11C134.564 10.6 134.111 10.4 133.497 10.4C132.831 10.4 132.338 10.68 132.018 11.24C131.724 11.8 131.578 12.36 131.578 12.92C131.578 14.12 131.858 15.1067 132.418 15.88C133.004 16.6267 133.764 17.4133 134.697 18.24L137.378 20.6C138.791 21.8 139.978 23.16 140.938 24.68C141.924 26.2 142.418 28.08 142.418 30.32C142.418 31.84 142.071 33.2267 141.378 34.48C140.684 35.7067 139.698 36.68 138.418 37.4C137.164 38.12 135.671 38.48 133.938 38.48Z" fill="#00196C"/>
</svg>
