<svg width="216" height="66" viewBox="0 0 216 66" fill="none" xmlns="http://www.w3.org/2000/svg">
<path d="M0.456 65.16V16.008H7.304V18.952C8.11467 18.0133 9.096 17.2027 10.248 16.52C11.4 15.8373 12.7653 15.496 14.344 15.496C16.264 15.496 17.7787 16.008 18.888 17.032C20.04 18.0133 20.8933 19.272 21.448 20.808C22.0027 22.3013 22.3653 23.8373 22.536 25.416C22.7067 26.952 22.792 28.2747 22.792 29.384V38.344C22.792 40.9467 22.536 43.4213 22.024 45.768C21.512 48.072 20.5733 49.9493 19.208 51.4C17.8853 52.808 16.008 53.512 13.576 53.512C12.2533 53.512 11.08 53.192 10.056 52.552C9.032 51.8693 8.11467 51.1013 7.304 50.248V65.16H0.456ZM12.232 48.136C13.4267 48.136 14.28 47.7093 14.792 46.856C15.304 45.96 15.624 44.7653 15.752 43.272C15.88 41.7787 15.944 40.136 15.944 38.344V29.384C15.944 27.848 15.8587 26.44 15.688 25.16C15.5173 23.8373 15.1547 22.792 14.6 22.024C14.0453 21.256 13.1707 20.872 11.976 20.872C11.08 20.872 10.2267 21.064 9.416 21.448C8.60533 21.832 7.90133 22.28 7.304 22.792V46.472C7.944 46.9413 8.66933 47.3467 9.48 47.688C10.2907 47.9867 11.208 48.136 12.232 48.136ZM28.2105 53V1.16H35.0585V19.848C36.2958 18.6533 37.6825 17.6293 39.2185 16.776C40.7545 15.9227 42.4612 15.496 44.3385 15.496C45.7892 15.496 46.8985 15.88 47.6665 16.648C48.4772 17.416 49.0318 18.376 49.3305 19.528C49.6718 20.68 49.8425 21.8533 49.8425 23.048V53H42.9945V25.032C42.9945 23.7093 42.8025 22.6853 42.4185 21.96C42.0345 21.2347 41.2452 20.872 40.0505 20.872C39.2398 20.872 38.3865 21.1067 37.4905 21.576C36.6372 22.0453 35.8265 22.6213 35.0585 23.304V53H28.2105ZM55.5185 65.16V16.008H62.3665V18.952C63.1772 18.0133 64.1585 17.2027 65.3105 16.52C66.4625 15.8373 67.8278 15.496 69.4065 15.496C71.3265 15.496 72.8412 16.008 73.9505 17.032C75.1025 18.0133 75.9558 19.272 76.5105 20.808C77.0652 22.3013 77.4278 23.8373 77.5985 25.416C77.7692 26.952 77.8545 28.2747 77.8545 29.384V38.344C77.8545 40.9467 77.5985 43.4213 77.0865 45.768C76.5745 48.072 75.6358 49.9493 74.2705 51.4C72.9478 52.808 71.0705 53.512 68.6385 53.512C67.3158 53.512 66.1425 53.192 65.1185 52.552C64.0945 51.8693 63.1772 51.1013 62.3665 50.248V65.16H55.5185ZM67.2945 48.136C68.4892 48.136 69.3425 47.7093 69.8545 46.856C70.3665 45.96 70.6865 44.7653 70.8145 43.272C70.9425 41.7787 71.0065 40.136 71.0065 38.344V29.384C71.0065 27.848 70.9212 26.44 70.7505 25.16C70.5798 23.8373 70.2172 22.792 69.6625 22.024C69.1078 21.256 68.2332 20.872 67.0385 20.872C66.1425 20.872 65.2892 21.064 64.4785 21.448C63.6678 21.832 62.9638 22.28 62.3665 22.792V46.472C63.0065 46.9413 63.7318 47.3467 64.5425 47.688C65.3532 47.9867 66.2705 48.136 67.2945 48.136Z" fill="#E6E6E6"/>
<path d="M80.969 53L90.761 1.16H103.817L113.481 53H102.921L101.193 42.056H93.577L91.785 53H80.969ZM94.601 35.208H100.105L97.353 14.984L94.601 35.208ZM117.715 53V1.16H135.123C138.238 1.16 140.798 1.75733 142.803 2.952C144.808 4.104 146.302 5.81066 147.283 8.072C148.264 10.2907 148.755 13 148.755 16.2C148.755 20.2107 148.094 23.2827 146.771 25.416C145.448 27.5067 143.656 28.9573 141.395 29.768C139.134 30.5787 136.595 30.984 133.779 30.984H129.171V53H117.715ZM129.171 22.984H133.011C134.419 22.984 135.486 22.728 136.211 22.216C136.936 21.704 137.406 20.936 137.619 19.912C137.875 18.888 138.003 17.5867 138.003 16.008C138.003 14.6853 137.896 13.5333 137.683 12.552C137.512 11.528 137.064 10.7173 136.339 10.12C135.614 9.52267 134.483 9.224 132.947 9.224H129.171V22.984ZM153.278 53V1.16H170.686C173.8 1.16 176.36 1.75733 178.366 2.952C180.371 4.104 181.864 5.81066 182.846 8.072C183.827 10.2907 184.318 13 184.318 16.2C184.318 20.2107 183.656 23.2827 182.333 25.416C181.011 27.5067 179.219 28.9573 176.958 29.768C174.696 30.5787 172.158 30.984 169.342 30.984H164.734V53H153.278ZM164.734 22.984H168.574C169.982 22.984 171.048 22.728 171.774 22.216C172.499 21.704 172.968 20.936 173.182 19.912C173.438 18.888 173.566 17.5867 173.566 16.008C173.566 14.6853 173.459 13.5333 173.246 12.552C173.075 11.528 172.627 10.7173 171.902 10.12C171.176 9.52267 170.046 9.224 168.51 9.224H164.734V22.984ZM202.1 53.768C198.857 53.768 196.148 53.192 193.972 52.04C191.796 50.888 190.153 49.1173 189.044 46.728C187.935 44.296 187.316 41.16 187.188 37.32L196.98 35.848C197.023 38.0667 197.215 39.8587 197.556 41.224C197.94 42.5893 198.452 43.5707 199.092 44.168C199.775 44.7653 200.585 45.064 201.524 45.064C202.719 45.064 203.487 44.6587 203.828 43.848C204.212 43.0373 204.404 42.184 204.404 41.288C204.404 39.1547 203.892 37.3627 202.868 35.912C201.844 34.4187 200.457 32.9253 198.708 31.432L194.228 27.528C192.265 25.864 190.601 23.9867 189.236 21.896C187.913 19.7627 187.252 17.1387 187.252 14.024C187.252 9.62933 188.553 6.28 191.156 3.976C193.759 1.62933 197.3 0.455997 201.78 0.455997C204.553 0.455997 206.772 0.925331 208.436 1.864C210.143 2.80267 211.423 4.04 212.276 5.576C213.172 7.06933 213.769 8.66933 214.068 10.376C214.409 12.04 214.601 13.64 214.644 15.176L204.788 16.392C204.745 14.856 204.639 13.5333 204.468 12.424C204.34 11.272 204.041 10.3973 203.572 9.8C203.103 9.16 202.377 8.84 201.396 8.84C200.329 8.84 199.54 9.288 199.028 10.184C198.559 11.08 198.324 11.976 198.324 12.872C198.324 14.792 198.772 16.3707 199.668 17.608C200.607 18.8027 201.823 20.0613 203.316 21.384L207.604 25.16C209.865 27.08 211.764 29.256 213.3 31.688C214.879 34.12 215.668 37.128 215.668 40.712C215.668 43.144 215.113 45.3627 214.004 47.368C212.895 49.3307 211.316 50.888 209.268 52.04C207.263 53.192 204.873 53.768 202.1 53.768Z" fill="#EE4C7D"/>
</svg>
