<svg width="79" height="100" viewBox="0 0 79 100" fill="none" xmlns="http://www.w3.org/2000/svg">
<path d="M69.9073 10.6127V43.6739C72.3563 44.0821 74.3971 44.8984 75.6216 46.1229C79.2951 50.6127 78.0706 62.8576 78.0706 67.3474C78.0706 110.613 0.927734 110.613 0.927734 67.3474C0.927734 57.5515 0.927734 47.3474 0.927734 37.1433C0.927734 29.7964 13.989 28.1637 19.2951 33.0617C22.9686 29.3882 31.1318 29.3882 35.2135 32.6535C38.4788 29.3882 45.0094 28.9801 49.4992 31.0209V10.6127C49.4992 -3.67299 69.9073 -3.67299 69.9073 10.6127ZM65.8257 42.8576V10.6127C65.8257 2.04129 53.5808 2.04129 53.5808 10.6127V42.8576C57.6624 42.8576 62.1522 42.8576 65.8257 42.8576ZM49.4992 42.8576V36.7352C49.4992 33.0617 37.6624 33.0617 37.2543 36.7352C37.6624 48.1637 37.6624 56.327 37.6624 64.4903C38.0706 67.7556 49.4992 68.9801 49.4992 63.2658C39.7032 60.8168 41.7441 52.2454 41.7441 43.2658C43.3767 43.2658 46.2339 43.2658 49.4992 42.8576ZM53.5808 63.6739C53.5808 71.8372 40.9277 73.0617 35.6216 68.9801C31.9481 72.6535 22.9686 72.6535 19.2951 68.9801C16.0298 71.8372 9.49916 72.6535 5.41753 70.6127C8.68284 105.307 73.989 104.082 73.989 67.3474C73.989 64.4903 74.8053 51.429 72.3563 48.9801C69.9073 46.1229 49.4992 47.3474 45.8257 47.3474C45.8257 52.6535 44.6012 59.1842 51.54 59.5923H62.1522C66.642 59.5923 66.642 68.5719 62.5604 68.5719C55.2135 68.9801 51.54 73.0617 51.1318 80.4086C51.1318 82.8576 47.0502 82.8576 47.4583 80.4086C47.4583 71.8372 51.9481 66.1229 60.1114 64.4903V63.6739H53.5808ZM5.00937 65.3066C5.82569 68.5719 17.2543 68.5719 17.2543 64.8984V37.1433C17.2543 33.878 5.00937 33.4699 5.00937 37.1433C5.00937 46.5311 5.00937 55.9188 5.00937 65.3066ZM33.5808 64.8984C33.1726 58.776 33.1726 45.7148 33.1726 37.1433C32.7645 33.4699 21.3359 33.4699 21.3359 37.1433V64.8984C21.3359 68.5719 33.1726 68.5719 33.5808 64.8984Z" fill="#F33C6E"/>
</svg>
