<svg width="74" height="100" viewBox="0 0 74 100" fill="none" xmlns="http://www.w3.org/2000/svg">
<path d="M73.3985 18.0077L68.4177 47.8928C74.9311 51.341 73.0154 63.6016 73.0154 69.7318C73.0154 109.962 0.601562 109.962 0.601562 69.7318C0.601562 60.1533 0.601562 50.5747 0.601562 41.3793C0.601562 33.7165 13.2452 32.9502 17.8429 37.1648C20.9081 34.0996 27.4215 34.0996 31.2529 36.0154L29.7203 9.19543C28.9541 -2.29882 48.1111 -3.44824 48.8774 8.04601L50.41 40.2299L54.6245 14.9426C56.5403 2.68202 75.3142 4.21459 73.3985 18.0077ZM42.7472 50.5747C42.7472 65.5173 45.8123 60.9196 58.0728 62.069C59.2223 62.069 59.9885 62.8353 59.9885 63.9847V68.5824C59.9885 72.0307 48.4943 68.1993 47.728 81.6092C47.728 84.2912 43.8966 83.9081 44.2797 81.6092C44.2797 73.5632 48.4943 68.1993 56.1571 66.6667V65.9004C38.5326 66.6667 38.9157 63.9847 38.9157 46.7433C41.5977 46.7433 44.2797 46.7433 46.9617 46.7433C46.9617 34.4828 45.4291 20.6897 45.046 8.42915C44.6629 1.91574 33.1686 2.68202 33.5518 9.19543L35.0843 45.977V67.0498C35.0843 74.3295 22.0575 75.0958 17.8429 70.8813C14.7778 73.9464 8.2644 73.9464 4.81612 72.4138C7.88126 104.981 69.1839 103.831 69.1839 69.7318C69.5671 47.1265 69.1839 50.5747 42.7472 50.5747ZM4.43298 67.433C5.19926 70.4981 15.9272 70.4981 15.9272 67.0498V41.3793C15.9272 37.5479 4.43298 37.5479 4.43298 41.3793C4.43298 49.8085 4.43298 58.6207 4.43298 67.433ZM53.4751 46.7433C57.3065 46.7433 61.138 46.7433 64.9694 46.7433L69.5671 17.2414C70.7165 8.81229 59.6054 8.04601 58.0728 15.3257L53.4751 46.7433ZM31.2529 67.0498V41.3793C31.2529 37.5479 19.7586 37.5479 19.7586 41.3793V67.0498C19.7586 70.4981 31.2529 70.4981 31.2529 67.0498Z" fill="#F33C6E"/>
</svg>
