<svg width="87" height="67" viewBox="0 0 87 67" fill="none" xmlns="http://www.w3.org/2000/svg">
<path fill-rule="evenodd" clip-rule="evenodd" d="M15.9936 6.02551C19.7576 6.02551 20.9736 7.69591 20.9736 10.3663V16.2527C20.9736 17.5559 21.1544 18.5023 22.8248 18.5023V19.0151C22.8248 19.0151 21.1232 18.9567 20.0312 18.9567C18.8176 18.9567 18.0592 18.9567 16.9368 19.0151V18.5023C18.6056 18.5023 19.0608 17.7127 19.0608 16.1623V10.3055C19.0608 8.03111 17.5736 6.99831 15.7512 6.99831C13.1128 6.99831 12.4128 9.24231 12.4128 10.3663V16.2527C12.4128 17.5559 12.5968 18.5023 14.264 18.5023V19.0151C14.264 19.0151 12.5024 18.9567 11.3824 18.9567C10.1984 18.9567 9.4976 18.9567 8.3768 19.0151V18.5023C10.0456 18.5023 10.4992 17.7127 10.4992 16.1623V10.3055C10.4992 8.03111 9.3808 6.99831 7.5576 6.99831C4.916 6.99831 3.852 8.54391 3.852 10.4863V16.5295C3.852 17.8663 4.1256 18.5023 5.5832 18.5023V19.0151C5.5832 19.0151 4.0368 18.9567 2.8496 18.9567C1.6672 18.9567 1.1224 18.9567 0.0272 19.0151V18.5023C1.76 18.5023 1.9408 17.8663 1.9408 16.4951V9.57591C1.9408 8.12071 1.1824 7.93431 0 7.93431V7.51271H0.212C1.76 7.51271 2.8208 6.53911 2.7912 6.20791H3.368V7.72551C3.368 7.72551 5.1912 6.02551 7.7968 6.02551C10.1984 6.02551 11.4128 6.69431 11.9568 7.81831C12.0184 7.91111 13.3536 6.02551 15.9936 6.02551Z" fill="#F33C6E"/>
<path fill-rule="evenodd" clip-rule="evenodd" d="M26.5603 1.9872C26.5603 1.168 27.1683 0.5 28.0163 0.5C28.8067 0.5 29.4147 1.1984 29.4147 1.9568C29.4147 2.78 28.8371 3.4752 27.9875 3.4752C27.1387 3.4752 26.5603 2.78 26.5603 1.9872ZM29.0195 16.5296C29.0195 17.8664 29.1403 18.5024 30.9619 18.5024V19.0152C30.9619 19.0152 29.2307 18.9568 28.0483 18.9568C26.8675 18.9568 25.1323 18.9568 24.0371 19.0152V18.5024C25.7715 18.5024 27.1083 17.8664 27.1083 16.4952V9.576C27.1083 8.1208 26.1659 7.9344 24.9827 7.9344V7.5128H25.1947C26.7435 7.5128 28.1411 6.9984 28.4435 6.2072H29.0195V16.5296Z" fill="#F33C6E"/>
<path fill-rule="evenodd" clip-rule="evenodd" d="M33.3008 7.93407V7.51327H33.5136C35.0624 7.51327 36.124 6.53887 36.092 6.20767H36.6696V7.72527C36.6696 7.72527 38.492 6.02527 41.1016 6.02527C44.8656 6.02527 46.0776 7.69567 46.0776 10.3661V16.2525C46.0776 17.5557 47.204 18.5021 48.8752 18.5021V19.0157C48.8752 19.0157 46.2008 18.9565 45.0752 18.9565C43.8952 18.9565 43.1664 18.9565 42.0424 19.0157V18.5021C43.7128 18.5021 44.168 17.7133 44.168 16.1621V10.3053C44.168 8.03087 42.68 6.99807 40.8576 6.99807C38.2208 6.99807 37.1544 8.54447 37.1544 10.4861V16.5293C37.1544 17.8661 37.4304 18.5021 38.8848 18.5021V19.0157C38.8848 19.0157 37.3672 18.9565 36.184 18.9565C35.0024 18.9565 34.4232 18.9565 33.332 19.0157V18.5021C35.0624 18.5021 35.2424 17.8661 35.2424 16.4949V9.57647C35.2424 8.12047 34.484 7.93407 33.3008 7.93407Z" fill="#F33C6E"/>
<path fill-rule="evenodd" clip-rule="evenodd" d="M53.1253 15.7052C53.1253 17.7132 54.0045 18.138 55.9477 18.138C58.8917 18.138 60.1357 16.4668 60.1357 14.0388V11.7612C60.1357 11.7612 59.2253 12.6132 56.4933 12.886C53.7301 13.1588 53.1253 13.8564 53.1253 15.7052ZM52.7285 9.45401H51.7885L52.4861 6.14841C52.4861 6.14841 55.5813 6.02521 57.3725 6.02521C60.9565 6.02521 62.0485 6.93721 62.0485 9.42601V15.7996C62.0485 16.8308 62.5341 17.254 63.4133 17.254C63.6565 17.254 64.0525 17.1348 64.0525 17.1348L64.2949 17.618C64.2949 17.618 63.1717 18.0172 62.5341 18.2916C61.9269 18.5636 60.9853 19.1084 60.9853 19.1084C60.9853 19.1084 60.5013 18.138 60.0429 17.5556C59.1653 18.3524 57.6181 19.3212 55.0965 19.3212C52.3957 19.3212 51.0293 18.438 51.0293 15.6748C51.0293 13.1588 52.0309 12.0924 56.1285 11.8828C58.5877 11.7612 60.1989 11.0972 60.1989 9.21161C60.1989 7.23641 58.1925 7.02761 56.5533 7.02761C54.7933 7.02761 53.4285 7.11561 52.7285 9.45401Z" fill="#F33C6E"/>
<path fill-rule="evenodd" clip-rule="evenodd" d="M7.7072 30.1388C4.8552 30.1388 3.8216 31.3804 3.8216 35.6932C3.8216 40.5812 5.0344 41.2788 7.496 41.2788C10.1984 41.2788 11.2288 39.4548 11.2288 35.542C11.2288 31.3804 10.2256 30.1388 7.7072 30.1388ZM0 25.1628V24.7092H0.5144C2.0024 24.7092 2.9416 24.0988 3.4904 23.4932H4.0368V30.714C4.5504 29.9556 5.4616 28.9844 8.164 29.0124C11.6824 29.0444 13.4736 30.3204 13.4736 35.566C13.4736 41.2788 11.26 42.3068 7.86 42.3068C6.0696 42.3068 4.888 42.1276 3.52 40.8516C3.156 41.0956 2.8816 41.49 2.7008 42.0036H1.6992C1.7592 40.8516 1.8816 39.5756 1.8816 37.7212V27.7172C1.8816 26.4388 1.3032 25.1628 0.424 25.1628H0Z" fill="#F33C6E"/>
<path fill-rule="evenodd" clip-rule="evenodd" d="M24.5256 24.9778C24.5256 24.217 25.0736 23.609 25.8616 23.609C26.5904 23.609 27.136 24.2482 27.136 24.945C27.136 25.7042 26.62 26.3442 25.8312 26.3442C25.0432 26.3442 24.5256 25.7042 24.5256 24.9778ZM20.2752 24.9778C20.2752 24.217 20.824 23.609 21.6128 23.609C22.3408 23.609 22.8888 24.2482 22.8888 24.945C22.8888 25.7042 22.372 26.3442 21.584 26.3442C20.7928 26.3442 20.2752 25.7042 20.2752 24.9778ZM19.792 38.697C19.792 40.7018 20.6704 41.1242 22.6136 41.1242C25.5608 41.1242 26.8032 39.4546 26.8032 37.025V34.7482C26.8032 34.7482 25.8904 35.5994 23.16 35.8754C20.3992 36.1474 19.792 36.8434 19.792 38.697ZM19.3952 32.4442H18.456L19.1552 29.133C19.1552 29.133 22.2504 29.0122 24.0424 29.0122C27.6232 29.0122 28.7144 29.9258 28.7144 32.413V38.789C28.7144 39.8178 29.1984 40.2442 30.0808 40.2442C30.3248 40.2442 30.72 40.1218 30.72 40.1218L30.9616 40.6082C30.9616 40.6082 29.8384 41.0026 29.1984 41.2786C28.5936 41.5506 27.652 42.097 27.652 42.097C27.652 42.097 27.168 41.1242 26.7096 40.5474C25.8312 41.3386 24.2848 42.3066 21.7632 42.3066C19.0608 42.3066 17.6992 41.4274 17.6992 38.6658C17.6992 36.1474 18.6992 35.0826 22.7968 34.8722C25.256 34.7482 26.864 34.081 26.864 32.1986C26.864 30.229 24.8608 30.0162 23.2224 30.0162C21.4608 30.0162 20.096 30.1058 19.3952 32.4442Z" fill="#F33C6E"/>
<path fill-rule="evenodd" clip-rule="evenodd" d="M33.786 33.2646V32.4734C33.786 29.3478 36.3956 29.0126 39.0076 29.0126C40.1916 29.0126 40.9212 29.1662 42.1332 29.1662H43.3788L43.8332 32.291L43.1052 32.351C42.5596 30.255 41.1012 29.9254 39.0076 29.9254C36.702 29.9254 35.6076 30.4694 35.6076 32.5334C35.6076 33.8366 36.3668 34.387 38.2492 34.6318C38.7052 34.6902 39.2508 34.7198 39.7044 34.7798C41.678 35.023 44.4076 35.2358 44.4076 37.6942V38.819C44.4076 41.279 42.8028 42.307 39.0076 42.307C37.1244 42.307 35.4868 41.8814 34.518 41.8814H34.0916L33.666 38.2102L34.4564 38.1198C34.7276 40.9118 36.6404 41.3998 38.7348 41.3998C41.83 41.3998 42.6508 40.5814 42.6508 38.7886C42.6508 37.3302 41.7692 36.8438 39.4012 36.603C39.0076 36.5702 38.5524 36.5406 38.1292 36.4782C35.306 36.179 33.786 35.719 33.786 33.2646Z" fill="#F33C6E"/>
<path fill-rule="evenodd" clip-rule="evenodd" d="M49.2084 30.4091H47.5684V30.1387L51.0588 27.1019H51.3036V29.3803H56.8908L56.3724 30.4091H51.3036V38.5395C51.3036 39.9107 51.9708 40.9115 53.2772 40.9115C54.3364 40.9115 55.0668 39.8803 55.6132 39.0011L56.1628 39.3003L55.1572 41.8219C55.1572 41.8219 53.9148 42.2187 53.0924 42.2187C50.8764 42.2187 49.2084 41.1243 49.2084 38.6659V30.4091Z" fill="#F33C6E"/>
<path fill-rule="evenodd" clip-rule="evenodd" d="M60.8334 38.6974C60.8334 40.7022 61.715 41.1238 63.6574 41.1238C66.6046 41.1238 67.8486 39.4542 67.8486 37.0246V34.7478C67.8486 34.7478 66.935 35.5998 64.2022 35.8758C61.4438 36.147 60.8334 36.8438 60.8334 38.6974ZM60.4406 32.4446H59.499L60.1982 29.1334C60.1982 29.1334 63.291 29.0126 65.0846 29.0126C68.667 29.0126 69.759 29.9254 69.759 32.4134V38.7886C69.759 39.8174 70.247 40.2446 71.1254 40.2446C71.367 40.2446 71.763 40.1214 71.763 40.1214L72.0054 40.6086C72.0054 40.6086 70.8806 41.003 70.247 41.279C69.6366 41.5502 68.6966 42.0974 68.6966 42.0974C68.6966 42.0974 68.2102 41.1238 67.7558 40.5478C66.8774 41.339 65.3278 42.307 62.8086 42.307C60.107 42.307 58.7422 41.4278 58.7422 38.6662C58.7422 36.147 59.743 35.0822 63.8422 34.8726C66.2982 34.7478 67.907 34.0806 67.907 32.199C67.907 30.2294 65.9046 30.0158 64.2622 30.0158C62.5062 30.0158 61.1398 30.1062 60.4406 32.4446Z" fill="#F33C6E"/>
<path fill-rule="evenodd" clip-rule="evenodd" d="M4.1584 54.1185V56.7921C4.1584 60.2809 5.7048 60.9801 7.8912 60.9801C10.4088 60.9801 11.4416 59.7033 11.4416 56.6057V54.0889C11.4416 50.7793 9.9248 49.9609 7.7672 49.9609C5.4616 49.9609 4.1584 51.1121 4.1584 54.1185ZM0 50.8121V50.3833H0.2112C1.7592 50.3833 3.0632 49.8721 3.3672 49.0817H3.8512C3.8512 49.0817 3.8512 49.7449 3.972 50.4153C5.4 49.3545 6.4024 48.9001 8.1928 48.9001C11.8376 48.9001 13.6592 50.4153 13.6592 54.3641V56.6377C13.6592 60.0377 12.0176 62.0425 8.0728 62.0425C6.492 62.0425 5.3728 61.7361 4.1584 60.8585V63.5833C4.1584 64.9201 4.3384 65.5577 6.5544 65.5577V66.0721C6.5544 66.0721 4.4304 66.0097 3.2464 66.0097C2.0616 66.0097 1.1224 66.0097 0.0264 66.0721V65.5577C1.82 65.5577 2.2456 64.9201 2.2456 63.5513V52.4185C2.2456 50.9305 1.332 50.8121 0 50.8121Z" fill="#F33C6E"/>
<path fill-rule="evenodd" clip-rule="evenodd" d="M23.8562 49.9606C20.8834 49.9606 20.0018 51.0526 20.0018 55.7262C20.0018 59.9126 20.9122 61.1334 23.7962 61.1334C26.8634 61.1334 27.773 60.0382 27.773 55.607C27.773 51.0798 27.1066 49.9606 23.8562 49.9606ZM17.9082 55.7262C17.9082 49.8054 19.637 48.8998 23.8298 48.8998C28.257 48.8998 29.8698 49.8398 29.8698 55.6678C29.8698 61.3422 27.7418 62.191 23.7962 62.191C19.7594 62.191 17.9082 61.3126 17.9082 55.7262Z" fill="#F33C6E"/>
<path fill-rule="evenodd" clip-rule="evenodd" d="M32.9683 45.9903V45.5319H33.1787C35.0019 45.5319 36.3043 45.0215 36.6683 44.3247H37.0939V59.4007C37.0939 60.7375 37.5203 61.3719 38.9803 61.3719V61.8895C38.9803 61.8895 37.3083 61.8295 36.1227 61.8295C34.9419 61.8295 33.2979 61.8295 32.2051 61.8895V61.3719C33.9347 61.3719 35.1819 60.7375 35.1819 59.3695V47.6311C35.1819 46.1735 34.1515 45.9903 32.9683 45.9903Z" fill="#F33C6E"/>
<path fill-rule="evenodd" clip-rule="evenodd" d="M44.3198 58.5841C44.3198 60.5833 45.199 61.0097 47.1414 61.0097C50.0846 61.0097 51.3286 59.3401 51.3286 56.9129V54.6345C51.3286 54.6345 50.4206 55.4857 47.6862 55.7585C44.9278 56.0289 44.3198 56.7273 44.3198 58.5841ZM43.923 52.3281H42.983L43.6822 49.0193C43.6822 49.0193 46.779 48.9001 48.5686 48.9001C52.151 48.9001 53.2422 49.8049 53.2422 52.2993V58.6713C53.2422 59.7033 53.7294 60.1273 54.6094 60.1273C54.8526 60.1273 55.2454 60.0065 55.2454 60.0065L55.4902 60.4905C55.4902 60.4905 54.3662 60.8865 53.7294 61.1601C53.1222 61.4345 52.1822 61.9809 52.1822 61.9809C52.1822 61.9809 51.6942 61.0097 51.2414 60.4321C50.359 61.2225 48.8126 62.1913 46.2958 62.1913C43.591 62.1913 42.2246 61.3129 42.2246 58.5513C42.2246 56.0289 43.2262 54.9673 47.3238 54.7553C49.7814 54.6345 51.391 53.9665 51.391 52.0849C51.391 50.1105 49.3878 49.9009 47.747 49.9009C45.9902 49.9009 44.6238 49.9905 43.923 52.3281Z" fill="#F33C6E"/>
<path fill-rule="evenodd" clip-rule="evenodd" d="M61.4111 53.7849V59.4009C61.4111 60.7369 62.5959 61.3713 64.4191 61.3713V61.8897C64.4191 61.8897 61.6239 61.8297 60.4399 61.8297C59.2583 61.8297 58.4655 61.8297 57.3711 61.8897V61.3713C59.1047 61.3713 59.4983 60.7369 59.4983 59.3689V52.4497C59.4983 50.9905 58.5583 50.8121 57.3711 50.8121V50.3833H57.5863C59.1319 50.3833 60.1975 49.8721 60.5023 49.0817H61.0767V50.8705C61.6567 50.0521 63.0495 48.9001 64.9631 48.9001C65.4471 48.9001 65.8415 48.9601 66.2679 49.0497L66.5703 52.1129H65.7799C65.5071 50.7177 65.0247 50.1425 63.9903 50.1425C62.3863 50.1425 61.4111 51.6617 61.4111 53.7849Z" fill="#F33C6E"/>
<path fill-rule="evenodd" clip-rule="evenodd" d="M75.3765 50.02C72.9485 50.02 71.6725 51.112 71.6725 53.724V54.48H78.9269V53.4792C78.9269 50.8704 77.8661 50.02 75.3765 50.02ZM69.3965 56.5768V55.2424C69.3965 50.504 71.5837 48.9 75.3765 48.9C80.3229 48.9 81.2653 50.9616 81.2653 54.3872V55.5464H71.6725V56.6056C71.6725 60.2808 73.4021 61.0704 75.8597 61.0704C78.9581 61.0704 79.4437 60.2544 80.2941 58.5216L81.1117 58.7664L80.3541 61.616C80.3541 61.616 79.6565 61.768 79.2309 61.8296C77.9269 62.0104 77.0757 62.1912 75.7717 62.1912C71.4589 62.1912 69.3965 60.9456 69.3965 56.5768Z" fill="#F33C6E"/>
<path fill-rule="evenodd" clip-rule="evenodd" d="M82.6969 47.6888V49.4152C82.6969 49.5976 82.7625 49.6304 82.9553 49.6304V49.6856C82.9553 49.6856 82.7001 49.6792 82.5721 49.6792C82.4433 49.6792 82.3017 49.6792 82.1817 49.6856V49.6304C82.3705 49.6304 82.4473 49.5952 82.4473 49.4128V47.6888H82.0633C81.8049 47.6888 81.7545 47.892 81.6969 48.0904H81.5977C81.5977 48.0904 81.6673 47.7104 81.6585 47.5792H83.5233C83.5161 47.7176 83.5601 48.0904 83.5601 48.0904H83.4529C83.4041 47.724 83.2785 47.6888 83.0305 47.6888H82.6969Z" fill="#F33C6E"/>
<path fill-rule="evenodd" clip-rule="evenodd" d="M84.0626 47.7443H84.049V49.4155C84.049 49.5971 84.1154 49.6299 84.3074 49.6299V49.6859C84.3074 49.6859 84.1122 49.6795 83.9834 49.6795C83.8546 49.6795 83.7618 49.6795 83.6426 49.6859V49.6299C83.8314 49.6299 83.9074 49.5947 83.9074 49.4131V47.8827C83.9074 47.7011 83.841 47.6347 83.6482 47.6347V47.5795C83.6482 47.5795 83.897 47.5851 84.0258 47.5851C84.1554 47.5851 84.1418 47.5795 84.2618 47.5795L84.901 49.3467H84.9274L85.5674 47.5795C85.5674 47.5795 85.7098 47.5851 85.837 47.5851C85.965 47.5851 86.0546 47.5795 86.1746 47.5795V47.6347C85.985 47.6347 85.909 47.6379 85.909 47.8211V49.4155C85.909 49.5971 85.977 49.6299 86.1674 49.6299V49.6859C86.1674 49.6859 85.9354 49.6795 85.8082 49.6795C85.6778 49.6795 85.5402 49.6795 85.4202 49.6859V49.6299C85.609 49.6299 85.6578 49.5947 85.6578 49.4131V47.7203H85.6458L84.9506 49.6859H84.777C84.777 49.6859 84.0994 47.8435 84.0626 47.7443Z" fill="#F33C6E"/>
</svg>
