<svg width="144" height="114" viewBox="0 0 144 114" fill="none" xmlns="http://www.w3.org/2000/svg">
<mask id="path-1-inside-1_8_39" fill="white">
<path d="M135.017 67.535C135.02 58.6707 133.276 49.8929 129.886 41.7025C126.496 33.5121 121.526 26.0697 115.259 19.8001C108.993 13.5306 101.553 8.55662 93.3647 5.16231C85.1761 1.76799 76.3991 0.0197796 67.5349 0.017484L67.5344 1.94071C76.1461 1.94294 84.673 3.64134 92.6283 6.93894C100.584 10.2365 107.811 15.0688 113.899 21.1597C119.987 27.2507 124.815 34.481 128.109 42.438C131.402 50.395 133.096 58.9228 133.094 67.5345L135.017 67.535Z"/>
</mask>
<path d="M135.017 67.535C135.02 58.6707 133.276 49.8929 129.886 41.7025C126.496 33.5121 121.526 26.0697 115.259 19.8001C108.993 13.5306 101.553 8.55662 93.3647 5.16231C85.1761 1.76799 76.3991 0.0197796 67.5349 0.017484L67.5344 1.94071C76.1461 1.94294 84.673 3.64134 92.6283 6.93894C100.584 10.2365 107.811 15.0688 113.899 21.1597C119.987 27.2507 124.815 34.481 128.109 42.438C131.402 50.395 133.096 58.9228 133.094 67.5345L135.017 67.535Z" stroke="#EE4C7D" stroke-width="4" stroke-linecap="round" mask="url(#path-1-inside-1_8_39)"/>
<path d="M131.945 77.5375C131.945 77.0949 132.001 76.6949 132.113 76.3375C132.231 75.9802 132.399 75.6708 132.617 75.4095L133.145 75.6415C132.937 75.9135 132.783 76.1989 132.681 76.4975C132.58 76.7962 132.529 77.1429 132.529 77.5375C132.529 78.0175 132.617 78.3722 132.793 78.6015C132.975 78.8362 133.212 78.9535 133.505 78.9535C133.74 78.9535 133.927 78.8682 134.065 78.6975C134.204 78.5322 134.313 78.2522 134.393 77.8575L134.561 77.0255C134.668 76.5242 134.841 76.1482 135.081 75.8975C135.327 75.6522 135.652 75.5295 136.057 75.5295C136.393 75.5295 136.687 75.6149 136.937 75.7855C137.188 75.9615 137.383 76.2042 137.521 76.5135C137.66 76.8229 137.729 77.1802 137.729 77.5855C137.729 77.9642 137.668 78.3162 137.545 78.6415C137.428 78.9669 137.257 79.2415 137.033 79.4655L136.521 79.2335C136.74 78.9935 136.897 78.7402 136.993 78.4735C137.095 78.2069 137.145 77.9082 137.145 77.5775C137.145 77.1562 137.047 76.8202 136.849 76.5695C136.657 76.3189 136.401 76.1935 136.081 76.1935C135.825 76.1935 135.623 76.2709 135.473 76.4255C135.324 76.5855 135.215 76.8442 135.145 77.2015L134.969 78.0335C134.857 78.5722 134.687 78.9695 134.457 79.2255C134.233 79.4869 133.927 79.6175 133.537 79.6175C133.223 79.6175 132.945 79.5322 132.705 79.3615C132.465 79.1962 132.279 78.9562 132.145 78.6415C132.012 78.3322 131.945 77.9642 131.945 77.5375ZM131.945 83.4754C131.945 82.9207 132.063 82.4461 132.297 82.0514C132.532 81.6567 132.865 81.3527 133.297 81.1394C133.729 80.9314 134.244 80.8274 134.841 80.8274C135.433 80.8274 135.945 80.9314 136.377 81.1394C136.809 81.3527 137.143 81.6567 137.377 82.0514C137.612 82.4461 137.729 82.9207 137.729 83.4754C137.729 83.8647 137.668 84.2221 137.545 84.5474C137.423 84.8781 137.244 85.1581 137.009 85.3874L136.473 85.1314C136.703 84.8861 136.868 84.6301 136.969 84.3634C137.076 84.1021 137.129 83.8114 137.129 83.4914C137.129 82.8567 136.929 82.3714 136.529 82.0354C136.129 81.6994 135.567 81.5314 134.841 81.5314C134.111 81.5314 133.545 81.6994 133.145 82.0354C132.745 82.3714 132.545 82.8567 132.545 83.4914C132.545 83.8114 132.596 84.1021 132.697 84.3634C132.804 84.6301 132.972 84.8861 133.201 85.1314L132.665 85.3874C132.436 85.1581 132.257 84.8781 132.129 84.5474C132.007 84.2221 131.945 83.8647 131.945 83.4754ZM132.017 86.8182L137.657 86.8182L137.657 89.0502C137.657 89.6582 137.516 90.1222 137.233 90.4422C136.951 90.7675 136.548 90.9302 136.025 90.9302C135.609 90.9302 135.268 90.8155 135.001 90.5862C134.735 90.3622 134.561 90.0422 134.481 89.6262C134.396 89.8715 134.188 90.0822 133.857 90.2582L132.017 91.2502L132.017 90.5302L133.825 89.5542C134.049 89.4315 134.201 89.2902 134.281 89.1302C134.361 88.9702 134.401 88.7595 134.401 88.4982L134.401 87.4742L132.017 87.4742L132.017 86.8182ZM134.921 87.4742L134.921 88.9542C134.921 89.8395 135.289 90.2822 136.025 90.2822C136.751 90.2822 137.113 89.8395 137.113 88.9542L137.113 87.4742L134.921 87.4742ZM131.945 94.8987C131.945 94.376 132.063 93.92 132.297 93.5307C132.537 93.1467 132.873 92.848 133.305 92.6347C133.737 92.4267 134.249 92.3227 134.841 92.3227C135.433 92.3227 135.945 92.4267 136.377 92.6347C136.809 92.8427 137.143 93.1387 137.377 93.5227C137.612 93.912 137.729 94.3707 137.729 94.8987C137.729 95.432 137.612 95.8907 137.377 96.2747C137.143 96.664 136.809 96.9627 136.377 97.1707C135.951 97.384 135.441 97.4907 134.849 97.4907C134.257 97.4907 133.743 97.384 133.305 97.1707C132.873 96.9574 132.537 96.656 132.297 96.2667C132.063 95.8827 131.945 95.4267 131.945 94.8987ZM132.529 94.8987C132.529 95.5014 132.732 95.968 133.137 96.2987C133.543 96.6294 134.111 96.7947 134.841 96.7947C135.572 96.7947 136.137 96.6294 136.537 96.2987C136.943 95.968 137.145 95.5014 137.145 94.8987C137.145 94.3067 136.943 93.8454 136.537 93.5147C136.137 93.184 135.572 93.0187 134.841 93.0187C134.116 93.0187 133.548 93.184 133.137 93.5147C132.732 93.8454 132.529 94.3067 132.529 94.8987ZM132.017 99.0635L137.657 99.0635L137.657 99.7195L132.593 99.7195L132.593 102.592L132.017 102.592L132.017 99.0635ZM132.017 103.807L137.657 103.807L137.657 104.463L132.593 104.463L132.593 107.335L132.017 107.335L132.017 103.807Z" fill="#EE4C7D"/>
</svg>
