<svg width="180" height="908" viewBox="0 0 180 908" fill="none" xmlns="http://www.w3.org/2000/svg">
<g opacity="0.15">
<path d="M180 907.6L45.6 907.6L45.6 873L59 873C54.2 870.333 50.4 866.267 47.6 860.8C44.8 855.333 43.4 849.333 43.4 842.8C43.4 834.4 45.4667 827 49.6 820.6C53.7333 814.067 59.6667 809 67.4 805.4C75 801.667 84.1333 799.8 94.8 799.8C105.333 799.8 114.467 801.6 122.2 805.2C129.933 808.8 135.867 813.867 140 820.4C144.133 826.8 146.2 834.267 146.2 842.8C146.2 848.933 144.933 854.667 142.4 860C139.867 865.2 136.467 869.2 132.2 872L180 872L180 907.6ZM120 854C120 848.667 118 844.267 114 840.8C110 837.333 103.6 835.6 94.8 835.6C85.8667 835.6 79.4667 837.333 75.6 840.8C71.6 844.267 69.6 848.667 69.6 854C69.6 859.467 71.6 863.933 75.6 867.4C79.4667 870.867 85.8667 872.6 94.8 872.6C103.6 872.6 110 870.867 114 867.4C118 863.933 120 859.467 120 854ZM144 783.477L2.99999 783.477L2.99998 747.877L57.8 747.877C48.2 740.81 43.4 730.543 43.4 717.077C43.4 705.343 46.8667 696.677 53.8 691.077C60.7333 685.343 71.4 682.477 85.8 682.477L144 682.477L144 718.077L87.2 718.077C81.2 718.077 76.9333 719.143 74.4 721.277C71.8667 723.277 70.6 726.277 70.6 730.277C70.6 735.61 72.3333 739.877 75.8 743.077C79.1333 746.277 83.6667 747.877 89.4 747.877L144 747.877L144 783.477ZM180 662.087L45.6 662.087L45.6 627.487L59 627.487C54.2 624.821 50.4 620.754 47.6 615.287C44.8 609.821 43.4 603.821 43.4 597.287C43.4 588.887 45.4666 581.487 49.6 575.087C53.7333 568.554 59.6666 563.487 67.4 559.887C75 556.154 84.1333 554.287 94.8 554.287C105.333 554.287 114.467 556.087 122.2 559.687C129.933 563.287 135.867 568.354 140 574.887C144.133 581.287 146.2 588.754 146.2 597.287C146.2 603.421 144.933 609.154 142.4 614.487C139.867 619.687 136.467 623.687 132.2 626.487L180 626.487L180 662.087ZM120 608.487C120 603.154 118 598.754 114 595.287C110 591.821 103.6 590.087 94.8 590.087C85.8666 590.087 79.4666 591.821 75.6 595.287C71.6 598.754 69.6 603.154 69.6 608.487C69.6 613.954 71.6 618.421 75.6 621.887C79.4667 625.354 85.8667 627.087 94.8 627.087C103.6 627.087 110 625.354 114 621.887C118 618.421 120 613.954 120 608.487Z" fill="#EE4C7D"/>
<path d="M144 552.564L2.99997 486.564L2.99997 457.564L144 391.564L144 428.364L115.4 440.564L115.4 503.564L144 515.764L144 552.564ZM41.4 472.364L87.2 491.564L87.2 452.764L41.4 471.964L41.4 472.364ZM144 382.925L2.99997 382.925L2.99997 315.125C2.99996 299.125 7.1333 286.792 15.4 278.125C23.5333 269.325 34.8 264.925 49.2 264.925C63.6 264.925 74.9333 269.325 83.2 278.125C91.3333 286.792 95.4 299.125 95.4 315.125L95.4 346.125L144 346.125L144 382.925ZM67.2 346.125L67.2 321.525C67.2 307.125 61.2 299.925 49.2 299.925C37.2 299.925 31.2 307.125 31.2 321.525L31.2 346.125L67.2 346.125ZM144 247.669L2.99996 247.669L2.99996 179.869C2.99996 163.869 7.13329 151.535 15.4 142.869C23.5333 134.069 34.8 129.669 49.2 129.669C63.6 129.669 74.9333 134.069 83.2 142.869C91.3333 151.535 95.4 163.869 95.4 179.869L95.4 210.869L144 210.869L144 247.669ZM67.2 210.869L67.2 186.269C67.2 171.869 61.2 164.669 49.2 164.669C37.2 164.669 31.2 171.869 31.2 186.269L31.2 210.869L67.2 210.869ZM146.2 60.0125C146.2 71.0792 144.867 81.6792 142.2 91.8125C139.4 101.946 135.733 110.279 131.2 116.813L102.6 106.613C106.733 100.479 110 93.2792 112.4 85.0125C114.8 76.7458 116 68.4125 116 60.0125C116 51.2125 114.867 45.0792 112.6 41.6125C110.2 38.0125 107.267 36.2125 103.8 36.2125C100.733 36.2125 98.2666 37.4792 96.4 40.0125C94.5333 42.4125 92.9333 46.7458 91.6 53.0125L86.6 76.4125C81.1333 101.746 67.8666 114.413 46.8 114.413C37.6 114.413 29.5333 111.946 22.6 107.013C15.6666 101.946 10.3333 94.9459 6.59996 86.0125C2.73329 77.0792 0.799959 66.6792 0.799958 54.8125C0.799958 45.0792 2.19996 35.8792 4.99995 27.2125C7.66662 18.4125 11.3333 11.2792 16 5.81252L42.8 16.0125C39.0666 21.0792 36.2 26.9459 34.2 33.6125C32.0666 40.2792 31 47.4792 31 55.2125C31 62.6792 32.3333 68.4125 35 72.4125C37.5333 76.4125 40.8666 78.4125 45 78.4125C47.9333 78.4125 50.3333 77.2125 52.2 74.8125C54.0666 72.4125 55.6666 68.1459 57 62.0125L62 38.8125C67.4666 13.0792 80.4 0.21252 100.8 0.212519C110 0.212519 118 2.67918 124.8 7.61252C131.6 12.5459 136.867 19.4792 140.6 28.4125C144.333 37.3458 146.2 47.8792 146.2 60.0125Z" fill="#00196C"/>
</g>
</svg>
