<svg width="32" height="45" viewBox="0 0 32 45" fill="none" xmlns="http://www.w3.org/2000/svg">
<g clip-path="url(#clip0_1134_14206)">
<path d="M30.9977 6.27106C30.9977 5.6413 30.487 5.13106 29.8577 5.13106C29.228 5.13106 28.7177 5.6413 28.7177 6.27106V8.4229C28.4667 8.29282 28.2104 8.17426 27.9517 8.06722V2.62354C27.9517 1.99378 27.4409 1.48354 26.8116 1.48354C26.1819 1.48354 25.6716 1.99378 25.6716 2.62354V7.38562C25.4129 7.3333 25.1571 7.28914 24.9046 7.2517V1.71154C24.9046 1.08226 24.3948 0.572021 23.7646 0.572021C23.1353 0.572021 22.6246 1.08226 22.6246 1.71154V7.06162C22.351 7.05586 22.0976 7.05634 21.8681 7.06066V3.76306C21.8681 3.1333 21.3584 2.62354 20.7286 2.62354C20.0989 2.62354 19.5886 3.1333 19.5886 3.76306V10.9986L18.8312 11.756L16.591 9.51634C16.1461 9.0709 15.4241 9.0709 14.9792 9.51634C14.5342 9.9613 14.5342 10.6832 14.9792 11.1282L19.5929 15.741C19.3443 24.9536 11.7728 32.3725 2.50157 32.3725C1.87181 32.3725 1.36157 32.8827 1.36157 33.5125C1.36157 34.1423 1.87181 34.652 2.50157 34.652C13.1859 34.652 21.8787 25.9597 21.8787 15.2749C21.8787 14.9725 21.7587 14.6831 21.5451 14.469L20.4435 13.3674L21.1525 12.6584C22.0083 12.7875 23.8592 13.2411 24.7712 14.8021C24.9828 15.165 25.3645 15.3675 25.7566 15.3675C25.9515 15.3675 26.1493 15.3171 26.3302 15.2115C26.8741 14.8938 27.0569 14.1959 26.7401 13.6525C25.4705 11.4805 23.2198 10.7279 21.8691 10.4677V9.34114C22.4326 9.32962 23.1872 9.3421 24.0233 9.4333C25.4533 9.59074 27.3737 10.017 28.7182 11.1325V15.2744C28.7182 29.7301 16.9577 41.4906 2.50205 41.4906C1.87229 41.4906 1.36205 42.0008 1.36205 42.6306C1.36205 43.2603 1.87181 43.772 2.50157 43.772C18.2139 43.772 30.9977 30.9882 30.9977 15.2759V6.27106Z" fill="#F33C6E"/>
</g>
<defs>
<clipPath id="clip0_1134_14206">
<rect width="31" height="44" fill="white" transform="translate(0.17395 0.572021)"/>
</clipPath>
</defs>
</svg>
