<svg width="101" height="100" viewBox="0 0 101 100" fill="none" xmlns="http://www.w3.org/2000/svg">
<path d="M96.8451 100H17.7754C8.14745 100 0.333496 92.186 0.333496 82.5581V3.48837C0.333496 1.5814 1.91489 0 3.82187 0C5.72884 0 7.31024 1.5814 7.31024 3.48837V82.5581C7.31024 88.3256 12.0079 93.0233 17.7754 93.0233H96.8451C98.7521 93.0233 100.333 94.6046 100.333 96.5116C100.333 98.4186 98.7521 100 96.8451 100Z" fill="#00196C"/>
<path d="M17.7747 76.7433C16.984 76.7433 16.1467 76.4642 15.4956 75.9061C14.0537 74.6503 13.8677 72.4642 15.1235 70.9759L36.4723 46.0456C38.7979 43.348 42.1467 41.7201 45.6815 41.5805C49.2164 41.4875 52.7048 42.7898 55.2164 45.3014L59.635 49.7201C60.7978 50.8828 62.2862 51.441 63.9606 51.441C65.5885 51.3945 67.0769 50.6503 68.1467 49.3945L89.4955 24.4643C90.7513 23.0225 92.9374 22.8364 94.4257 24.0922C95.8676 25.3481 96.0536 27.5341 94.7978 29.0225L73.449 53.9526C71.1234 56.6503 67.7746 58.2782 64.2397 58.4177C60.6583 58.5107 57.2164 57.2084 54.7048 54.6968L50.3327 50.2782C49.1699 49.1154 47.635 48.5107 46.0071 48.5573C44.3792 48.6038 42.8908 49.348 41.8211 50.6038L20.4723 75.534C19.7281 76.3247 18.7514 76.7433 17.7747 76.7433Z" fill="#EE4C7D"/>
</svg>
