<svg width="87" height="66" viewBox="0 0 87 66" fill="none" xmlns="http://www.w3.org/2000/svg">
<path fill-rule="evenodd" clip-rule="evenodd" d="M15.9936 5.52563C19.7576 5.52563 20.9736 7.19603 20.9736 9.86643V15.7528C20.9736 17.056 21.1544 18.0024 22.8248 18.0024V18.5152C22.8248 18.5152 21.1232 18.4568 20.0312 18.4568C18.8176 18.4568 18.0592 18.4568 16.9368 18.5152V18.0024C18.6056 18.0024 19.0608 17.2128 19.0608 15.6624V9.80563C19.0608 7.53123 17.5736 6.49843 15.7512 6.49843C13.1128 6.49843 12.4128 8.74243 12.4128 9.86643V15.7528C12.4128 17.056 12.5968 18.0024 14.264 18.0024V18.5152C14.264 18.5152 12.5024 18.4568 11.3824 18.4568C10.1984 18.4568 9.4976 18.4568 8.3768 18.5152V18.0024C10.0456 18.0024 10.4992 17.2128 10.4992 15.6624V9.80563C10.4992 7.53123 9.3808 6.49843 7.5576 6.49843C4.916 6.49843 3.852 8.04403 3.852 9.98643V16.0296C3.852 17.3664 4.1256 18.0024 5.5832 18.0024V18.5152C5.5832 18.5152 4.0368 18.4568 2.8496 18.4568C1.6672 18.4568 1.1224 18.4568 0.0272 18.5152V18.0024C1.76 18.0024 1.9408 17.3664 1.9408 15.9952V9.07603C1.9408 7.62083 1.1824 7.43443 0 7.43443V7.01283H0.212C1.76 7.01283 2.8208 6.03923 2.7912 5.70803H3.368V7.22563C3.368 7.22563 5.1912 5.52563 7.7968 5.52563C10.1984 5.52563 11.4128 6.19443 11.9568 7.31843C12.0184 7.41123 13.3536 5.52563 15.9936 5.52563Z" fill="white"/>
<path fill-rule="evenodd" clip-rule="evenodd" d="M26.5603 1.4872C26.5603 0.668 27.1683 0 28.0163 0C28.8067 0 29.4147 0.6984 29.4147 1.4568C29.4147 2.28 28.8371 2.9752 27.9875 2.9752C27.1387 2.9752 26.5603 2.28 26.5603 1.4872ZM29.0195 16.0296C29.0195 17.3664 29.1403 18.0024 30.9619 18.0024V18.5152C30.9619 18.5152 29.2307 18.4568 28.0483 18.4568C26.8675 18.4568 25.1323 18.4568 24.0371 18.5152V18.0024C25.7715 18.0024 27.1083 17.3664 27.1083 15.9952V9.076C27.1083 7.6208 26.1659 7.4344 24.9827 7.4344V7.0128H25.1947C26.7435 7.0128 28.1411 6.4984 28.4435 5.7072H29.0195V16.0296Z" fill="white"/>
<path fill-rule="evenodd" clip-rule="evenodd" d="M33.3008 7.43419V7.01339H33.5136C35.0624 7.01339 36.124 6.03899 36.092 5.70779H36.6696V7.22539C36.6696 7.22539 38.492 5.52539 41.1016 5.52539C44.8656 5.52539 46.0776 7.19579 46.0776 9.86619V15.7526C46.0776 17.0558 47.204 18.0022 48.8752 18.0022V18.5158C48.8752 18.5158 46.2008 18.4566 45.0752 18.4566C43.8952 18.4566 43.1664 18.4566 42.0424 18.5158V18.0022C43.7128 18.0022 44.168 17.2134 44.168 15.6622V9.80539C44.168 7.53099 42.68 6.49819 40.8576 6.49819C38.2208 6.49819 37.1544 8.04459 37.1544 9.98619V16.0294C37.1544 17.3662 37.4304 18.0022 38.8848 18.0022V18.5158C38.8848 18.5158 37.3672 18.4566 36.184 18.4566C35.0024 18.4566 34.4232 18.4566 33.332 18.5158V18.0022C35.0624 18.0022 35.2424 17.3662 35.2424 15.995V9.07659C35.2424 7.62059 34.484 7.43419 33.3008 7.43419Z" fill="white"/>
<path fill-rule="evenodd" clip-rule="evenodd" d="M53.1253 15.2051C53.1253 17.2131 54.0045 17.6379 55.9477 17.6379C58.8917 17.6379 60.1357 15.9667 60.1357 13.5387V11.2611C60.1357 11.2611 59.2253 12.1131 56.4933 12.3859C53.7301 12.6587 53.1253 13.3563 53.1253 15.2051ZM52.7285 8.95395H51.7885L52.4861 5.64835C52.4861 5.64835 55.5813 5.52515 57.3725 5.52515C60.9565 5.52515 62.0485 6.43715 62.0485 8.92595V15.2995C62.0485 16.3307 62.5341 16.7539 63.4133 16.7539C63.6565 16.7539 64.0525 16.6347 64.0525 16.6347L64.2949 17.1179C64.2949 17.1179 63.1717 17.5171 62.5341 17.7915C61.9269 18.0635 60.9853 18.6083 60.9853 18.6083C60.9853 18.6083 60.5013 17.6379 60.0429 17.0555C59.1653 17.8523 57.6181 18.8211 55.0965 18.8211C52.3957 18.8211 51.0293 17.9379 51.0293 15.1747C51.0293 12.6587 52.0309 11.5923 56.1285 11.3827C58.5877 11.2611 60.1989 10.5971 60.1989 8.71155C60.1989 6.73635 58.1925 6.52755 56.5533 6.52755C54.7933 6.52755 53.4285 6.61555 52.7285 8.95395Z" fill="white"/>
<path fill-rule="evenodd" clip-rule="evenodd" d="M7.7072 29.6388C4.8552 29.6388 3.8216 30.8804 3.8216 35.1932C3.8216 40.0812 5.0344 40.7788 7.496 40.7788C10.1984 40.7788 11.2288 38.9548 11.2288 35.042C11.2288 30.8804 10.2256 29.6388 7.7072 29.6388ZM0 24.6628V24.2092H0.5144C2.0024 24.2092 2.9416 23.5988 3.4904 22.9932H4.0368V30.214C4.5504 29.4556 5.4616 28.4844 8.164 28.5124C11.6824 28.5444 13.4736 29.8204 13.4736 35.066C13.4736 40.7788 11.26 41.8068 7.86 41.8068C6.0696 41.8068 4.888 41.6276 3.52 40.3516C3.156 40.5956 2.8816 40.99 2.7008 41.5036H1.6992C1.7592 40.3516 1.8816 39.0756 1.8816 37.2212V27.2172C1.8816 25.9388 1.3032 24.6628 0.424 24.6628H0Z" fill="white"/>
<path fill-rule="evenodd" clip-rule="evenodd" d="M24.5256 24.4779C24.5256 23.7171 25.0736 23.1091 25.8616 23.1091C26.5904 23.1091 27.136 23.7483 27.136 24.4451C27.136 25.2043 26.62 25.8443 25.8312 25.8443C25.0432 25.8443 24.5256 25.2043 24.5256 24.4779ZM20.2752 24.4779C20.2752 23.7171 20.824 23.1091 21.6128 23.1091C22.3408 23.1091 22.8888 23.7483 22.8888 24.4451C22.8888 25.2043 22.372 25.8443 21.584 25.8443C20.7928 25.8443 20.2752 25.2043 20.2752 24.4779ZM19.792 38.1971C19.792 40.2019 20.6704 40.6243 22.6136 40.6243C25.5608 40.6243 26.8032 38.9547 26.8032 36.5251V34.2483C26.8032 34.2483 25.8904 35.0995 23.16 35.3755C20.3992 35.6475 19.792 36.3435 19.792 38.1971ZM19.3952 31.9443H18.456L19.1552 28.6331C19.1552 28.6331 22.2504 28.5123 24.0424 28.5123C27.6232 28.5123 28.7144 29.4259 28.7144 31.9131V38.2891C28.7144 39.3179 29.1984 39.7443 30.0808 39.7443C30.3248 39.7443 30.72 39.6219 30.72 39.6219L30.9616 40.1083C30.9616 40.1083 29.8384 40.5027 29.1984 40.7787C28.5936 41.0507 27.652 41.5971 27.652 41.5971C27.652 41.5971 27.168 40.6243 26.7096 40.0475C25.8312 40.8387 24.2848 41.8067 21.7632 41.8067C19.0608 41.8067 17.6992 40.9275 17.6992 38.1659C17.6992 35.6475 18.6992 34.5827 22.7968 34.3723C25.256 34.2483 26.864 33.5811 26.864 31.6987C26.864 29.7291 24.8608 29.5163 23.2224 29.5163C21.4608 29.5163 20.096 29.6059 19.3952 31.9443Z" fill="white"/>
<path fill-rule="evenodd" clip-rule="evenodd" d="M33.786 32.7645V31.9733C33.786 28.8477 36.3956 28.5125 39.0076 28.5125C40.1916 28.5125 40.9212 28.6661 42.1332 28.6661H43.3788L43.8332 31.7909L43.1052 31.8509C42.5596 29.7549 41.1012 29.4253 39.0076 29.4253C36.702 29.4253 35.6076 29.9693 35.6076 32.0333C35.6076 33.3365 36.3668 33.8869 38.2492 34.1317C38.7052 34.1901 39.2508 34.2197 39.7044 34.2797C41.678 34.5229 44.4076 34.7357 44.4076 37.1941V38.3189C44.4076 40.7789 42.8028 41.8069 39.0076 41.8069C37.1244 41.8069 35.4868 41.3813 34.518 41.3813H34.0916L33.666 37.7101L34.4564 37.6197C34.7276 40.4117 36.6404 40.8997 38.7348 40.8997C41.83 40.8997 42.6508 40.0813 42.6508 38.2885C42.6508 36.8301 41.7692 36.3437 39.4012 36.1029C39.0076 36.0701 38.5524 36.0405 38.1292 35.9781C35.306 35.6789 33.786 35.2189 33.786 32.7645Z" fill="white"/>
<path fill-rule="evenodd" clip-rule="evenodd" d="M49.2084 29.909H47.5684V29.6386L51.0588 26.6018H51.3036V28.8802H56.8908L56.3724 29.909H51.3036V38.0394C51.3036 39.4106 51.9708 40.4114 53.2772 40.4114C54.3364 40.4114 55.0668 39.3802 55.6132 38.501L56.1628 38.8002L55.1572 41.3218C55.1572 41.3218 53.9148 41.7186 53.0924 41.7186C50.8764 41.7186 49.2084 40.6242 49.2084 38.1658V29.909Z" fill="white"/>
<path fill-rule="evenodd" clip-rule="evenodd" d="M60.8334 38.1973C60.8334 40.2021 61.715 40.6236 63.6574 40.6236C66.6046 40.6236 67.8486 38.9541 67.8486 36.5245V34.2477C67.8486 34.2477 66.935 35.0997 64.2022 35.3757C61.4438 35.6469 60.8334 36.3437 60.8334 38.1973ZM60.4406 31.9445H59.499L60.1982 28.6333C60.1982 28.6333 63.291 28.5125 65.0846 28.5125C68.667 28.5125 69.759 29.4253 69.759 31.9133V38.2885C69.759 39.3173 70.247 39.7445 71.1254 39.7445C71.367 39.7445 71.763 39.6213 71.763 39.6213L72.0054 40.1085C72.0054 40.1085 70.8806 40.5029 70.247 40.7789C69.6366 41.0501 68.6966 41.5972 68.6966 41.5972C68.6966 41.5972 68.2102 40.6237 67.7558 40.0477C66.8774 40.8389 65.3278 41.8069 62.8086 41.8069C60.107 41.8069 58.7422 40.9277 58.7422 38.1661C58.7422 35.6469 59.743 34.5821 63.8422 34.3725C66.2982 34.2477 67.907 33.5805 67.907 31.6989C67.907 29.7293 65.9046 29.5157 64.2622 29.5157C62.5062 29.5157 61.1398 29.6061 60.4406 31.9445Z" fill="white"/>
<path fill-rule="evenodd" clip-rule="evenodd" d="M4.1584 53.6185V56.2921C4.1584 59.7809 5.7048 60.4801 7.8912 60.4801C10.4088 60.4801 11.4416 59.2033 11.4416 56.1057V53.5889C11.4416 50.2793 9.9248 49.4609 7.7672 49.4609C5.4616 49.4609 4.1584 50.6121 4.1584 53.6185ZM0 50.3121V49.8833H0.2112C1.7592 49.8833 3.0632 49.3721 3.3672 48.5817H3.8512C3.8512 48.5817 3.8512 49.2449 3.972 49.9153C5.4 48.8545 6.4024 48.4001 8.1928 48.4001C11.8376 48.4001 13.6592 49.9153 13.6592 53.8641V56.1377C13.6592 59.5377 12.0176 61.5425 8.0728 61.5425C6.492 61.5425 5.3728 61.2361 4.1584 60.3585V63.0833C4.1584 64.4201 4.3384 65.0577 6.5544 65.0577V65.5721C6.5544 65.5721 4.4304 65.5097 3.2464 65.5097C2.0616 65.5097 1.1224 65.5097 0.0264 65.5721V65.0577C1.82 65.0577 2.2456 64.4201 2.2456 63.0513V51.9185C2.2456 50.4305 1.332 50.3121 0 50.3121Z" fill="white"/>
<path fill-rule="evenodd" clip-rule="evenodd" d="M23.8562 49.4607C20.8834 49.4607 20.0018 50.5527 20.0018 55.2263C20.0018 59.4127 20.9122 60.6335 23.7962 60.6335C26.8634 60.6335 27.773 59.5383 27.773 55.1071C27.773 50.5799 27.1066 49.4607 23.8562 49.4607ZM17.9082 55.2263C17.9082 49.3055 19.637 48.3999 23.8298 48.3999C28.257 48.3999 29.8698 49.3399 29.8698 55.1679C29.8698 60.8423 27.7418 61.6911 23.7962 61.6911C19.7594 61.6911 17.9082 60.8127 17.9082 55.2263Z" fill="white"/>
<path fill-rule="evenodd" clip-rule="evenodd" d="M32.9683 45.4903V45.0319H33.1787C35.0019 45.0319 36.3043 44.5215 36.6683 43.8247H37.0939V58.9007C37.0939 60.2375 37.5203 60.8719 38.9803 60.8719V61.3895C38.9803 61.3895 37.3083 61.3295 36.1227 61.3295C34.9419 61.3295 33.2979 61.3295 32.2051 61.3895V60.8719C33.9347 60.8719 35.1819 60.2375 35.1819 58.8695V47.1311C35.1819 45.6735 34.1515 45.4903 32.9683 45.4903Z" fill="white"/>
<path fill-rule="evenodd" clip-rule="evenodd" d="M44.3198 58.0841C44.3198 60.0833 45.199 60.5097 47.1414 60.5097C50.0846 60.5097 51.3286 58.8401 51.3286 56.4129V54.1345C51.3286 54.1345 50.4206 54.9857 47.6862 55.2585C44.9278 55.5289 44.3198 56.2273 44.3198 58.0841ZM43.923 51.8281H42.983L43.6822 48.5193C43.6822 48.5193 46.779 48.4001 48.5686 48.4001C52.151 48.4001 53.2422 49.3049 53.2422 51.7993V58.1713C53.2422 59.2033 53.7294 59.6273 54.6094 59.6273C54.8526 59.6273 55.2454 59.5065 55.2454 59.5065L55.4902 59.9905C55.4902 59.9905 54.3662 60.3865 53.7294 60.6601C53.1222 60.9345 52.1822 61.4809 52.1822 61.4809C52.1822 61.4809 51.6942 60.5097 51.2414 59.9321C50.359 60.7225 48.8126 61.6913 46.2958 61.6913C43.591 61.6913 42.2246 60.8129 42.2246 58.0513C42.2246 55.5289 43.2262 54.4673 47.3238 54.2553C49.7814 54.1345 51.391 53.4665 51.391 51.5849C51.391 49.6105 49.3878 49.4009 47.747 49.4009C45.9902 49.4009 44.6238 49.4905 43.923 51.8281Z" fill="white"/>
<path fill-rule="evenodd" clip-rule="evenodd" d="M61.4111 53.2849V58.9009C61.4111 60.2369 62.5959 60.8713 64.4191 60.8713V61.3897C64.4191 61.3897 61.6239 61.3297 60.4399 61.3297C59.2583 61.3297 58.4655 61.3297 57.3711 61.3897V60.8713C59.1047 60.8713 59.4983 60.2369 59.4983 58.8689V51.9497C59.4983 50.4905 58.5583 50.3121 57.3711 50.3121V49.8833H57.5863C59.1319 49.8833 60.1975 49.3721 60.5023 48.5817H61.0767V50.3705C61.6567 49.5521 63.0495 48.4001 64.9631 48.4001C65.4471 48.4001 65.8415 48.4601 66.2679 48.5497L66.5703 51.6129H65.7799C65.5071 50.2177 65.0247 49.6425 63.9903 49.6425C62.3863 49.6425 61.4111 51.1617 61.4111 53.2849Z" fill="white"/>
<path fill-rule="evenodd" clip-rule="evenodd" d="M75.3765 49.5199C72.9485 49.5199 71.6725 50.6119 71.6725 53.2239V53.9799H78.9269V52.9791C78.9269 50.3703 77.8661 49.5199 75.3765 49.5199ZM69.3965 56.0767V54.7423C69.3965 50.0039 71.5837 48.3999 75.3765 48.3999C80.3229 48.3999 81.2653 50.4615 81.2653 53.8871V55.0463H71.6725V56.1055C71.6725 59.7807 73.4021 60.5703 75.8597 60.5703C78.9581 60.5703 79.4437 59.7543 80.2941 58.0215L81.1117 58.2663L80.3541 61.1159C80.3541 61.1159 79.6565 61.2679 79.2309 61.3295C77.9269 61.5103 77.0757 61.6911 75.7717 61.6911C71.4589 61.6911 69.3965 60.4455 69.3965 56.0767Z" fill="white"/>
<path fill-rule="evenodd" clip-rule="evenodd" d="M82.6969 47.1887V48.9151C82.6969 49.0975 82.7625 49.1303 82.9553 49.1303V49.1855C82.9553 49.1855 82.7001 49.1791 82.5721 49.1791C82.4433 49.1791 82.3017 49.1791 82.1817 49.1855V49.1303C82.3705 49.1303 82.4473 49.0951 82.4473 48.9127V47.1887H82.0633C81.8049 47.1887 81.7545 47.3919 81.6969 47.5903H81.5977C81.5977 47.5903 81.6673 47.2103 81.6585 47.0791H83.5233C83.5161 47.2175 83.5601 47.5903 83.5601 47.5903H83.4529C83.4041 47.2239 83.2785 47.1887 83.0305 47.1887H82.6969Z" fill="white"/>
<path fill-rule="evenodd" clip-rule="evenodd" d="M83.6426 47.0793H86.1745V49.1857H83.6426V47.0793Z" fill="white"/>
<path fill-rule="evenodd" clip-rule="evenodd" d="M84.0626 47.2441H84.049V48.9153C84.049 49.0969 84.1154 49.1297 84.3074 49.1297V49.1857C84.3074 49.1857 84.1122 49.1793 83.9834 49.1793C83.8546 49.1793 83.7618 49.1793 83.6426 49.1857V49.1297C83.8314 49.1297 83.9074 49.0945 83.9074 48.9129V47.3825C83.9074 47.2009 83.841 47.1345 83.6482 47.1345V47.0793C83.6482 47.0793 83.897 47.0849 84.0258 47.0849C84.1554 47.0849 84.1418 47.0793 84.2618 47.0793L84.901 48.8465H84.9274L85.5674 47.0793C85.5674 47.0793 85.7098 47.0849 85.837 47.0849C85.965 47.0849 86.0546 47.0793 86.1746 47.0793V47.1345C85.985 47.1345 85.909 47.1377 85.909 47.3209V48.9153C85.909 49.0969 85.977 49.1297 86.1674 49.1297V49.1857C86.1674 49.1857 85.9354 49.1793 85.8082 49.1793C85.6778 49.1793 85.5402 49.1793 85.4202 49.1857V49.1297C85.609 49.1297 85.6578 49.0945 85.6578 48.9129V47.2201H85.6458L84.9506 49.1857H84.777C84.777 49.1857 84.0994 47.3433 84.0626 47.2441Z" fill="white"/>
</svg>
