<?xml version="1.0" encoding="UTF-8"?>
<svg width="186px" height="32px" viewBox="0 0 186 32" version="1.1" xmlns="http://www.w3.org/2000/svg" xmlns:xlink="http://www.w3.org/1999/xlink">
    <defs>
        <polyline id="path-1" points="0 0.354435805 184.968944 0.354435805 184.968944 30.9587321 0 30.9587321"></polyline>
    </defs>
    <g id="UI" stroke="none" stroke-width="1" fill="none" fill-rule="evenodd">
        <g transform="translate(-724.000000, -1051.000000)" id="BostadDirekt">
            <g transform="translate(724.717188, 1051.518403)">
                <path d="M28.0839049,15.5804226 C28.0839049,22.3530602 22.4705929,27.8436802 15.5466157,27.8436802 C8.6226385,27.8436802 3.00932648,22.3530602 3.00932648,15.5804226 C3.00932648,8.80778509 8.6226385,3.31716507 15.5466157,3.31716507 C22.4705929,3.31716507 28.0839049,8.80778509 28.0839049,15.5804226" id="Fill-1" fill="#FFFFFE"></path>
                <path d="M39.1269001,22.0598485 L40.0367491,22.0598485 C41.4967306,22.0598485 41.6648999,21.3576156 41.6648999,19.5072468 C41.6648999,18.2185905 41.4967306,16.9764055 40.1321456,16.9764055 L39.1269001,16.9764055 L39.1269001,22.0598485 L39.1269001,22.0598485 Z M39.1269001,13.9321671 L39.9398444,13.9321671 C41.3300695,13.9321671 41.4729757,12.9260267 41.4729757,11.7539175 C41.4729757,10.443132 41.1860321,9.71692584 40.1083908,9.71692584 L39.1269001,9.71692584 L39.1269001,13.9321671 L39.1269001,13.9321671 Z M34.7216926,6.5329047 L40.8259385,6.5329047 C44.0351075,6.5329047 45.5916166,7.7264055 45.5916166,10.9340311 C45.5916166,12.9013158 45.3042959,14.6347687 43.1735223,15.3373704 L43.1735223,15.3845793 C45.3284278,15.7589314 46.0701075,17.3286284 46.0701075,19.6935008 C46.0701075,22.8321571 44.8970697,25.2446073 40.9695989,25.2446073 L34.7216926,25.2446073 L34.7216926,6.5329047 L34.7216926,6.5329047 Z" id="Fill-2" fill="#1A1919"></path>
                <path d="M52.4390504,20.5148624 C52.4390504,21.0061304 52.4390504,22.2236045 53.7078618,22.2236045 C54.9770502,22.2236045 54.9770502,21.0061304 54.9770502,20.5148624 L54.9770502,11.2630183 C54.9770502,10.6308612 54.9770502,9.5539075 53.7078618,9.5539075 C52.4390504,9.5539075 52.4390504,10.6308612 52.4390504,11.2630183 L52.4390504,20.5148624 L52.4390504,20.5148624 Z M48.0334658,11.6381081 C48.0334658,7.98421053 50.4278053,6.22752193 53.7078618,6.22752193 C56.9882953,6.22752193 59.3822577,7.98421053 59.3822577,11.6381081 L59.3822577,20.1394039 C59.3822577,23.4654207 57.2035974,25.5492524 53.7078618,25.5492524 C50.2125032,25.5492524 48.0334658,23.4654207 48.0334658,20.1394039 L48.0334658,11.6381081 L48.0334658,11.6381081 Z" id="Fill-3" fill="#1A1919"></path>
                <path d="M65.4401251,18.8983254 L65.4401251,20.2806619 C65.4401251,21.2871711 65.679559,22.2236045 66.9242385,22.2236045 C67.929861,22.2236045 68.4566157,21.5918162 68.4566157,20.7719298 C68.4566157,19.1325259 66.7089364,18.0323365 64.9616342,16.7897827 C63.189446,15.3613437 61.4172577,14.3312301 61.4172577,11.4739833 C61.4172577,7.79758772 63.5242764,6.22752193 67.0437669,6.22752193 C70.8750871,6.22752193 72.5515018,8.05428628 72.5515018,10.9340311 L72.5515018,12.6217504 L68.4324838,12.6217504 L68.4324838,11.6148724 C68.4324838,10.6773325 68.2888234,9.5539075 67.0437669,9.5539075 C66.1109172,9.5539075 65.5355216,10.0912779 65.5355216,10.958742 C65.5355216,12.0832735 67.4027293,13.3711922 69.1990495,14.6823465 C70.8268232,16.0875498 72.8625774,17.0011164 72.8625774,20.7719298 C72.8625774,22.5758274 71.4734834,25.5492524 66.8771058,25.5492524 C62.5186539,25.5492524 61.1782009,22.856868 61.1782009,20.9124502 L61.1782009,18.8983254 L65.4401251,18.8983254" id="Fill-4" fill="#1A1919"></path>
                <polyline id="Fill-5" fill="#1A1919" points="73.9402186 6.5329047 84.043954 6.5329047 84.043954 10.1388557 81.1948786 10.1388557 81.1948786 25.2460825 76.7896711 25.2460825 76.7896711 10.1388557 73.9402186 10.1388557 73.9402186 6.5329047"></polyline>
                <path d="M88.9084223,18.5936802 L91.1112146,18.5936802 L90.081083,9.43588517 L90.0343274,9.43588517 L88.9084223,18.5936802 L88.9084223,18.5936802 Z M87.1366111,6.5329047 L92.9803076,6.5329047 L96.5699314,25.2446073 L91.950176,25.2446073 L91.5425727,21.919697 L88.4544404,21.919697 L87.9985733,25.2446073 L83.5929887,25.2446073 L87.1366111,6.5329047 L87.1366111,6.5329047 Z" id="Fill-6" fill="#1A1919"></path>
                <path d="M102.125176,22.0598485 L102.821231,22.0598485 C103.992761,22.0598485 104.663553,21.5671053 104.663553,20.4672847 L104.663553,11.3091208 C104.663553,10.2093002 103.992761,9.71692584 102.821231,9.71692584 L102.125176,9.71692584 L102.125176,22.0598485 L102.125176,22.0598485 Z M97.7188373,6.5329047 L104.279327,6.5329047 C108.040891,6.5329047 109.069137,8.6624701 109.069137,11.5433214 L109.069137,20.4429426 C109.069137,23.863746 106.604288,25.2446073 104.279327,25.2446073 L97.7188373,25.2446073 L97.7188373,6.5329047 L97.7188373,6.5329047 Z" id="Fill-7" fill="#1A1919"></path>
                <path d="M121.426191,22.0598485 L122.118476,22.0598485 C123.293776,22.0598485 123.962683,21.5671053 123.962683,20.4672847 L123.962683,11.3091208 C123.962683,10.2093002 123.293776,9.71692584 122.118476,9.71692584 L121.426191,9.71692584 L121.426191,22.0598485 L121.426191,22.0598485 Z M117.018722,6.5329047 L123.579212,6.5329047 C127.338513,6.5329047 128.369399,8.6624701 128.369399,11.5433214 L128.369399,20.4429426 C128.369399,23.863746 125.902286,25.2446073 123.579212,25.2446073 L117.018722,25.2446073 L117.018722,6.5329047 L117.018722,6.5329047 Z" id="Fill-8" fill="#1A1919"></path>
                <polygon id="Fill-9" fill="#1A1919" points="130.475663 6.5329047 134.87974 6.5329047 134.87974 25.2460825 130.475663 25.2460825"></polygon>
                <path d="M141.39272,13.9797448 L142.470738,13.9797448 C143.978984,13.9797448 143.978984,12.9964713 143.978984,11.7782596 C143.978984,10.4667364 143.978984,9.71766348 142.255059,9.71766348 L141.39272,9.71766348 L141.39272,13.9797448 L141.39272,13.9797448 Z M136.987513,6.5329047 L142.805946,6.5329047 C146.733794,6.5329047 148.385699,7.68030303 148.385699,11.0531599 C148.385699,13.2542763 148.075755,14.6823465 145.72704,15.3856858 L145.72704,15.4314195 C147.284303,15.7371711 148.289172,16.8373604 148.289172,18.4063198 L148.289172,21.7091009 C148.289172,22.9501794 148.241662,24.6367923 148.745039,25.2460825 L144.385456,25.2460825 C143.883964,24.6367923 143.883964,22.9501794 143.883964,21.7091009 L143.883964,18.7109649 C143.883964,17.63438 143.452983,17.1645036 142.207927,17.1645036 L141.39272,17.1645036 L141.39272,25.2460825 L136.987513,25.2460825 L136.987513,6.5329047 L136.987513,6.5329047 Z" id="Fill-10" fill="#1A1919"></path>
                <polyline id="Fill-11" fill="#1A1919" points="150.299663 6.5329047 160.095339 6.5329047 160.095339 10.1388557 154.706756 10.1388557 154.706756 13.8631978 159.423793 13.8631978 159.423793 17.470624 154.706756 17.470624 154.706756 21.6393939 160.308756 21.6393939 160.308756 25.2460825 150.299663 25.2460825 150.299663 6.5329047"></polyline>
                <polyline id="Fill-12" fill="#1A1919" points="162.272868 6.5329047 166.536301 6.5329047 166.536301 14.1907097 166.60568 14.1907097 169.527151 6.5329047 174.195925 6.5329047 170.533528 14.28439 174.221188 25.2460825 169.527151 25.2460825 167.564924 18.5475778 166.536301 20.0925638 166.536301 25.2460825 162.272868 25.2460825 162.272868 6.5329047"></polyline>
                <g id="Group-16">
                    <mask id="mask-2" fill="white">
                        <use xlink:href="#path-1"></use>
                    </mask>
                    <g id="Clip-14"></g>
                    <polyline id="Fill-13" fill="#1A1919" mask="url(#mask-2)" points="174.865963 6.5329047 184.968944 6.5329047 184.968944 10.1388557 182.121754 10.1388557 182.121754 25.2460825 177.715415 25.2460825 177.715415 10.1388557 174.865963 10.1388557 174.865963 6.5329047"></polyline>
                    <path d="M15.6544553,4.5187799 C9.36997406,4.5187799 4.25702242,9.51997608 4.25702242,15.6678329 C4.25702242,21.8149522 9.36997406,26.8172548 15.6544553,26.8172548 C21.9400676,26.8172548 27.0533963,21.8149522 27.0533963,15.6678329 C27.0533963,9.51997608 21.9400676,4.5187799 15.6544553,4.5187799 L15.6544553,4.5187799 Z M15.6544553,30.9808612 C7.02239022,30.9808612 0,24.1115929 0,15.6678329 C0,7.22407297 7.02239022,0.354435805 15.6544553,0.354435805 C24.2872744,0.354435805 31.3104188,7.22407297 31.3104188,15.6678329 C31.3104188,24.1115929 24.2872744,30.9808612 15.6544553,30.9808612 L15.6544553,30.9808612 Z" id="Fill-15" fill="#000000" mask="url(#mask-2)"></path>
                </g>
                <path d="M13.2152455,13.3236144 C13.2152455,12.2466607 14.1107662,11.372189 15.2114082,11.372189 C16.3116732,11.372189 17.2068168,12.2466607 17.2068168,13.3236144 C17.2068168,14.4005682 16.3116732,15.2765152 15.2114082,15.2765152 C14.1107662,15.2765152 13.2152455,14.4005682 13.2152455,13.3236144 L13.2152455,13.3236144 Z M16.5526153,17.7055622 C18.4790217,17.1405303 19.8877228,15.3908493 19.8877228,13.3236144 C19.8877228,10.8016248 17.7897536,8.74951156 15.2114082,8.74951156 C12.6315546,8.74951156 10.5350936,10.8016248 10.5350936,13.3236144 C10.5350936,15.3908493 11.9426635,17.1405303 13.8705781,17.7055622 L13.8705781,22.5795156 L18.5468927,22.5795156 L18.5468927,19.9572069 L16.5526153,19.9572069 L16.5526153,17.7055622 L16.5526153,17.7055622 Z" id="Fill-17" fill="#1A1919"></path>
            </g>
        </g>
    </g>
</svg>