<?xml version="1.0" encoding="UTF-8"?>
<svg width="131px" height="38px" viewBox="0 0 131 38" version="1.1" xmlns="http://www.w3.org/2000/svg" xmlns:xlink="http://www.w3.org/1999/xlink">
    <g id="UI" stroke="none" stroke-width="1" fill="none" fill-rule="evenodd">
        <g transform="translate(-1036.000000, -1048.000000)" fill="#1A1919" id="ya">
            <g transform="translate(1036.478126, 1048.560284)">
                <path d="M87.4024626,25.9873227 C86.2882683,25.9873227 85.6401891,26.7855447 85.6401891,27.7334614 C85.6401891,28.7118548 86.2882683,29.4643617 87.4024626,29.4643617 C88.5157604,29.4643617 89.1629433,28.7118548 89.1629433,27.7334614 C89.1629433,26.7855447 88.5157604,25.9873227 87.4024626,25.9873227 M91.8117317,20.1980841 L91.8117317,31.5865297 L89.0728576,31.5865297 L89.0423808,30.7286988 C88.560131,31.4964441 87.6122143,31.8424448 86.7095646,31.8424448 C84.4215672,31.8424448 82.8112293,29.9313731 82.8112293,27.718223 C82.8112293,25.5064175 84.3915386,23.6101359 86.6795361,23.6101359 C87.5673956,23.6101359 88.5005221,23.9413465 89.0728576,24.6181097 C89.0728576,24.6181097 89.0728576,20.1980841 89.0907851,20.1980841 L91.8117317,20.1980841" id="Fill-1"></path>
                <path d="M58.1497094,27.357432 L56.9158491,23.7454886 L55.6963308,27.357432 L58.1497094,27.357432 Z M58.9479314,29.6149527 L54.8842149,29.6149527 L54.1012313,31.5869779 L50.9710894,31.5869779 L55.335988,20.2379728 L58.5566637,20.2379728 L62.830132,31.5869779 L59.6852,31.5869779 L58.9479314,29.6149527 Z" id="Fill-2"></path>
                <path d="M124.256028,23.866051 L121.516258,23.866051 L121.516258,31.5869779 L124.256028,31.5869779 L124.256028,27.5833186 C124.256028,26.6197153 124.572001,25.7923611 125.685298,25.7923611 C127.040618,25.7923611 126.920055,27.0867268 126.920055,27.8239953 L126.920055,31.5869779 L129.658929,31.5869779 L129.658929,26.8155733 C129.658929,24.9192918 128.831127,23.6096877 126.754674,23.6096877 C125.685298,23.6096877 124.91845,23.92566 124.286505,24.8587864 L124.256028,23.866051" id="Fill-3"></path>
                <path d="M105.427221,23.866051 L102.687451,23.866051 L102.687451,31.5869779 L105.427221,31.5869779 L105.427221,27.8992908 C105.427221,27.0414598 105.427221,25.7318558 106.64674,25.7318558 C107.865362,25.7318558 107.865362,27.0414598 107.865362,27.8992908 L107.865362,31.5869779 L110.605132,31.5869779 L110.605132,27.8992908 C110.605132,26.9814027 110.649503,25.7923611 111.91384,25.7923611 C113.072404,25.7923611 113.042824,27.1010688 113.042824,27.8992908 L113.042824,31.5869779 L115.781698,31.5869779 L115.781698,26.6645341 C115.781698,24.888815 115.104935,23.6096877 113.148148,23.6096877 C112.094907,23.6096877 111.056457,24.1219661 110.52894,25.084673 C109.972291,24.0614608 109.009584,23.6096877 107.895838,23.6096877 C106.902655,23.6096877 106.103984,23.9704787 105.457698,24.8292061 L105.427221,23.866051" id="Fill-4"></path>
                <path d="M95.8732072,26.6049251 L99.048616,26.6049251 C98.9137116,25.8672084 98.2365002,25.3863032 97.4987835,25.3863032 C96.7010097,25.3863032 96.0385885,25.8075995 95.8732072,26.6049251 M101.592977,27.8992908 L101.592977,28.1856826 L95.8288367,28.1856826 C95.8288367,29.2989805 96.415066,29.9013446 97.5444986,29.9013446 C98.1311761,29.9013446 98.5524724,29.7050384 98.8532063,29.1936564 L101.487653,29.1936564 C101.051118,31.0146424 99.3202177,31.8419967 97.5588406,31.8419967 C95.0001379,31.8419967 93.0890662,30.3979364 93.0890662,27.7339096 C93.0890662,25.1604167 94.8504433,23.6096877 97.3634309,23.6096877 C100.042248,23.6096877 101.592977,25.2657407 101.592977,27.8992908" id="Fill-5"></path>
                <path d="M77.1878201,25.9877709 C76.0745223,25.9877709 75.4268913,26.7850965 75.4268913,27.7334614 C75.4268913,28.712303 76.0745223,29.4643617 77.1878201,29.4643617 C78.3015662,29.4643617 78.948749,28.712303 78.948749,27.7334614 C78.948749,26.7850965 78.3015662,25.9877709 77.1878201,25.9877709 M81.5975374,23.866051 L81.5975374,31.5869779 L78.8586633,31.5869779 L78.8281866,30.729147 C78.3463849,31.4959959 77.3984683,31.8424448 76.4949222,31.8424448 C74.2078211,31.8424448 72.5974833,29.9309249 72.5974833,27.7186712 C72.5974833,25.5059693 74.1782407,23.6096877 76.4653418,23.6096877 C77.3536495,23.6096877 78.2863278,23.9408983 78.8586633,24.6185579 L78.8586633,23.866051 L81.5975374,23.866051" id="Fill-6"></path>
                <polyline id="Fill-7" points="63.5302009 20.1980841 63.5302009 31.5865297 66.2690751 31.5865297 66.2690751 28.4411495 69.2643125 31.5865297 73.1021424 31.5865297 68.9936072 27.4327275 72.8610175 23.866051 69.1141696 23.866051 66.2690751 26.6506403 66.2690751 20.1980841 63.5302009 20.1980841"></polyline>
                <path d="M118.498163,19.94441 C117.655122,19.94441 116.962672,20.6368597 116.962672,21.4799005 C116.962672,22.3224931 117.655122,23.0144947 118.498163,23.0144947 C119.340756,23.0144947 120.033205,22.3224931 120.033205,21.4799005 C120.033205,20.6368597 119.340756,19.94441 118.498163,19.94441" id="Fill-8"></path>
                <polygon id="Fill-9" points="117.128502 31.5869779 119.867376 31.5869779 119.867376 23.866051 117.128502 23.866051"></polygon>
                <path d="M93.2813387,11.6614559 C92.4831166,11.2997685 91.6100473,11.1648641 90.7378743,11.1648641 C89.0522409,11.1648641 87.336579,12.0079048 87.336579,13.9037382 C87.336579,15.2886377 88.1935136,15.709934 89.0522409,15.9358205 C89.9096237,16.1617071 90.7674547,16.1912874 90.7674547,16.7936515 C90.7674547,17.2149478 90.2556245,17.3807772 89.9096237,17.3807772 C89.2328605,17.3807772 88.2988377,16.9890613 87.7426369,16.5982417 L86.7490051,18.5093134 C87.6821316,19.0816489 88.7658491,19.3976212 89.864805,19.3976212 C91.6557624,19.3976212 93.5072252,18.5545804 93.5072252,16.5220498 C93.5072252,15.0927797 92.5436219,14.4913121 91.2644947,14.2349488 C90.8880171,14.1601015 90.0301862,14.0843578 90.0301862,13.5577374 C90.0301862,13.1664697 90.5720449,13.0306688 90.8880171,13.0306688 C91.3545804,13.0306688 91.9412579,13.181708 92.3625542,13.4075946 L93.2813387,11.6614559" id="Fill-10"></path>
                <path d="M80.736121,14.1596533 L83.9106334,14.1596533 C83.7757289,13.4223848 83.0985175,12.9401349 82.3608008,12.9401349 C81.5634752,12.9401349 80.9015022,13.3623276 80.736121,14.1596533 M86.4549941,15.4540189 L86.4549941,15.7404108 L80.690854,15.7404108 C80.690854,16.8537086 81.2770833,17.4556245 82.406516,17.4556245 C82.9931935,17.4556245 83.4144898,17.2602147 83.71612,16.7483846 L86.34967,16.7483846 C85.9131353,18.5693706 84.182235,19.397173 82.4217543,19.397173 C79.8630516,19.397173 77.9515317,17.9526645 77.9515317,15.2886377 C77.9515317,12.7151448 79.7124606,11.1644159 82.2254482,11.1644159 C84.9042652,11.1644159 86.4549941,12.8204689 86.4549941,15.4540189" id="Fill-11"></path>
                <polyline id="Fill-12" points="68.8994878 7.77925532 68.8994878 19.1417061 71.6383619 19.1417061 71.6383619 15.9958777 74.6335993 19.1417061 78.4709811 19.1417061 74.362894 14.9879039 78.2303044 11.4207792 74.4834565 11.4207792 71.6383619 14.2049202 71.6383619 7.77925532 68.8994878 7.77925532"></polyline>
                <path d="M64.6856284,11.420331 L61.945858,11.420331 L61.945858,19.1417061 L64.6856284,19.1417061 L64.6856284,16.0259062 C64.6856284,14.701512 65.0612096,13.69309 66.5814618,13.69309 C67.0032063,13.69309 67.3644454,13.738357 67.7404748,13.9485569 L67.7404748,11.3150069 L67.2138544,11.3150069 C66.1449271,11.3150069 65.2427256,11.7367514 64.715657,12.684668 L64.6856284,11.420331" id="Fill-13"></path>
                <polyline id="Fill-14" points="55.508092 13.69309 55.508092 19.1412579 58.4585106 19.1412579 58.4585106 13.69309 62.6418932 7.79314913 59.1047971 7.79314913 56.9830772 10.8784722 54.8609092 7.79314913 51.323813 7.79314913 55.508092 13.69309"></polyline>
                <g id="Group-18">
                    <path d="M29.2012756,15.8058461 L25.0954295,25.9469858 L33.3075699,25.9469858 L29.3030142,15.8058461 L29.2012756,15.8058461 Z M10.9524232,36.7379974 L14.0502955,30.1088554 L17.595459,30.1075108 L28.0328507,7.77342888 L34.0685924,7.77342888 L47.60296,36.7379974 L37.7683806,36.7379974 L35.5386476,31.5452965 L22.9158934,31.5452965 L20.6346188,36.7379974 L10.9524232,36.7379974 Z" id="Fill-15"></path>
                    <polyline id="Fill-17" points="15.21776 11.6622882 10.1057329 0.220956462 0.272049842 0.220956462 10.5485422 22.1592888 7.38971631 29.187766 16.6743696 29.185525 30.2087372 0.220956462 20.374606 0.220956462 15.21776 11.6622882"></polyline>
                </g>
            </g>
        </g>
    </g>
</svg>