<svg width="500" height="500" viewBox="0 0 500 500" fill="none" xmlns="http://www.w3.org/2000/svg">
<path d="M-213.422 90.9375C-163.613 63.8551 -148.022 92.5284 -98.2133 65.446C-48.4042 38.3637 -63.9945 9.6904 -14.1997 -17.3842C35.5951 -44.4587 51.1997 -15.7933 101.009 -42.8756C150.818 -69.958 135.228 -98.6313 185.037 -125.714C234.846 -152.796 250.436 -124.123 300.26 -151.213C350.083 -178.303 334.478 -206.969 384.288 -234.051" stroke="#4EDEE4" stroke-width="8" stroke-miterlimit="10"/>
<path d="M59.5664 593.011C109.376 565.928 124.966 594.602 174.775 567.519C224.584 540.437 208.994 511.764 258.789 484.689C308.583 457.614 324.188 486.28 373.997 459.198C423.806 432.115 408.216 403.442 458.025 376.36C507.834 349.277 523.424 377.951 573.248 350.86C623.071 323.77 607.467 295.105 657.276 268.022" stroke="#4EDEE4" stroke-width="8" stroke-miterlimit="10"/>
<path d="M-182.242 148.284C-132.433 121.202 -116.811 149.933 -67.0019 122.851C-17.1928 95.7686 -32.8148 67.0371 16.98 39.9625C66.7747 12.8879 82.4111 41.6117 132.22 14.5293C182.029 -12.553 166.407 -41.2846 216.216 -68.3669C266.026 -95.4493 281.648 -66.7178 331.471 -93.8079C381.294 -120.898 365.658 -149.622 415.467 -176.704" stroke="#4EDEE4" stroke-width="8" stroke-miterlimit="10"/>
<path d="M90.748 650.357C140.557 623.275 156.179 652.007 205.988 624.924C255.797 597.842 240.175 569.11 289.97 542.036C339.765 514.961 355.401 543.685 405.21 516.603C455.02 489.52 439.398 460.789 489.207 433.706C539.016 406.624 554.638 435.355 604.461 408.265C654.285 381.175 638.648 352.451 688.457 325.369" stroke="#4EDEE4" stroke-width="8" stroke-miterlimit="10"/>
<path d="M-197.832 119.61C-148.023 92.528 -132.433 121.201 -82.6235 94.1189C-32.8144 67.0365 -48.4047 38.3633 1.39011 11.2887C51.1849 -15.7859 66.7895 12.8796 116.599 -14.2028C166.408 -41.2852 150.817 -69.9584 200.627 -97.0408C250.436 -124.123 266.026 -95.4499 315.849 -122.54C365.673 -149.63 350.068 -178.296 399.877 -205.378" stroke="#4EDEE4" stroke-width="8" stroke-miterlimit="10"/>
<path d="M75.1582 621.685C124.967 594.602 140.558 623.275 190.367 596.193C240.176 569.111 224.586 540.437 274.38 513.363C324.175 486.288 339.78 514.954 389.589 487.871C439.398 460.789 423.808 432.116 473.617 405.033C523.426 377.951 539.016 406.624 588.84 379.534C638.663 352.444 623.058 323.779 672.868 296.696" stroke="#4EDEE4" stroke-width="8" stroke-miterlimit="10"/>
<path d="M43.9766 564.338C93.7857 537.256 109.376 565.929 159.185 538.846C208.994 511.764 193.404 483.091 243.199 456.016C292.993 428.942 308.598 457.607 358.407 430.525C408.216 403.442 392.626 374.769 442.435 347.687C492.244 320.604 507.835 349.278 557.658 322.188C607.481 295.097 591.877 266.432 641.686 239.35" stroke="#4EDEE4" stroke-width="8" stroke-miterlimit="10"/>
<path d="M106.369 679.089C156.178 652.007 171.769 680.68 221.578 653.597C271.387 626.515 255.796 597.842 305.591 570.767C355.386 543.693 370.991 572.358 420.8 545.276C470.609 518.193 455.019 489.52 504.828 462.438C554.637 435.355 570.227 464.029 620.051 436.938C669.874 409.848 654.269 381.183 704.079 354.1" stroke="#4EDEE4" stroke-width="8" stroke-miterlimit="10"/>
<path d="M-205.627 105.274C-155.818 78.192 -140.228 106.865 -90.4184 79.7829C-40.6093 52.7006 -56.1996 24.0273 -6.40481 -3.04726C43.39 -30.1218 58.9946 -1.45636 108.804 -28.5387C158.613 -55.6211 143.023 -84.2943 192.832 -111.377C242.641 -138.459 258.231 -109.786 308.055 -136.876C357.878 -163.966 342.273 -192.632 392.082 -219.714" stroke="#4EDEE4" stroke-width="8" stroke-miterlimit="10"/>
<path d="M-80.8418 334.777C-31.0327 307.695 -15.4107 336.427 34.3984 309.344C84.2076 282.262 68.5856 253.53 118.38 226.456C168.175 199.381 183.811 228.105 233.621 201.022C283.43 173.94 267.808 145.209 317.617 118.126C367.426 91.0439 383.048 119.775 432.871 92.6852C482.695 65.5951 467.058 36.8713 516.868 9.78895" stroke="#4EDEE4" stroke-width="8" stroke-miterlimit="10"/>
<path d="M-143.234 220.025C-93.4253 192.943 -77.8349 221.616 -28.0258 194.534C21.7833 167.452 6.19298 138.778 55.9878 111.704C105.783 84.6291 121.387 113.295 171.196 86.2123C221.005 59.1299 205.415 30.4566 255.224 3.37427C305.033 -23.7081 320.624 4.96516 370.447 -22.125C420.271 -49.2152 404.666 -77.8806 454.475 -104.963" stroke="#4EDEE4" stroke-width="8" stroke-miterlimit="10"/>
<path d="M-18.4473 449.528C31.3619 422.446 46.9839 451.178 96.793 424.095C146.602 397.013 130.98 368.281 180.775 341.207C230.57 314.132 246.206 342.856 296.015 315.773C345.824 288.691 330.202 259.96 380.011 232.877C429.82 205.795 445.442 234.526 495.266 207.436C545.089 180.346 529.453 151.622 579.262 124.54" stroke="#4EDEE4" stroke-width="8" stroke-miterlimit="10"/>
<path d="M-174.414 162.679C-124.605 135.596 -109.015 164.27 -59.2055 137.187C-9.3964 110.105 -24.9867 81.4316 24.8081 54.357C74.6029 27.2825 90.2075 55.9479 140.017 28.8656C189.826 1.78321 174.235 -26.89 224.045 -53.9724C273.854 -81.0548 289.444 -52.3815 339.267 -79.4717C389.091 -106.562 373.486 -135.227 423.295 -162.31" stroke="#4EDEE4" stroke-width="8" stroke-miterlimit="10"/>
<path d="M-49.6289 392.182C0.18021 365.099 15.7705 393.773 65.5796 366.69C115.389 339.608 99.7984 310.935 149.593 283.86C199.388 256.785 214.993 285.451 264.802 258.369C314.611 231.286 299.021 202.613 348.83 175.531C398.639 148.448 414.229 177.121 464.053 150.031C513.876 122.941 498.271 94.2756 548.08 67.1933" stroke="#4EDEE4" stroke-width="8" stroke-miterlimit="10"/>
<path d="M-112.021 277.431C-62.2124 250.348 -46.6221 279.022 3.18707 251.939C52.9962 224.857 37.4059 196.184 87.2007 169.109C136.995 142.034 152.6 170.7 202.409 143.618C252.218 116.535 236.628 87.8619 286.437 60.7795C336.246 33.6972 351.837 62.3704 401.66 35.2803C451.483 8.19012 435.879 -20.4754 485.688 -47.5577" stroke="#4EDEE4" stroke-width="8" stroke-miterlimit="10"/>
<path d="M12.7637 506.933C62.5728 479.85 78.1631 508.524 127.972 481.441C177.781 454.359 162.191 425.686 211.986 398.611C261.781 371.536 277.385 400.202 327.194 373.119C377.003 346.037 361.413 317.364 411.222 290.281C461.031 263.199 476.622 291.872 526.445 264.782C576.269 237.692 560.664 209.027 610.473 181.944" stroke="#4EDEE4" stroke-width="8" stroke-miterlimit="10"/>
<path d="M98.5742 664.753C148.383 637.671 163.974 666.344 213.783 639.261C263.592 612.179 248.002 583.506 297.796 556.431C347.591 529.357 363.196 558.022 413.005 530.94C462.814 503.857 447.224 475.184 497.033 448.102C546.842 421.019 562.432 449.693 612.256 422.603C662.079 395.512 646.475 366.847 696.284 339.765" stroke="#4EDEE4" stroke-width="8" stroke-miterlimit="10"/>
<path d="M-190.037 133.947C-140.228 106.865 -124.606 135.596 -74.7969 108.514C-24.9878 81.4317 -40.6098 52.7002 9.18503 25.6256C58.9798 -1.44898 74.6162 27.2748 124.425 0.192407C174.234 -26.89 158.612 -55.6215 208.421 -82.7039C258.231 -109.786 273.853 -81.0547 323.676 -108.145C373.5 -135.235 357.863 -163.959 407.672 -191.041" stroke="#4EDEE4" stroke-width="8" stroke-miterlimit="10"/>
<path d="M-65.2188 363.509C-15.4096 336.426 0.180684 365.1 49.9898 338.017C99.7989 310.935 84.2086 282.262 134.003 255.187C183.798 228.113 199.403 256.778 249.212 229.696C299.021 202.613 283.431 173.94 333.24 146.858C383.049 119.775 398.639 148.449 448.463 121.358C498.286 94.2682 482.682 65.6028 532.491 38.5204" stroke="#4EDEE4" stroke-width="8" stroke-miterlimit="10"/>
<path d="M-127.643 248.698C-77.8335 221.616 -62.2115 250.347 -12.4023 223.265C37.4068 196.183 21.7848 167.451 71.5796 140.377C121.374 113.302 137.011 142.026 186.82 114.943C236.629 87.861 221.007 59.1295 270.816 32.0471C320.625 4.96475 336.247 33.6963 386.071 6.60613C435.894 -20.484 420.258 -49.2078 470.067 -76.2901" stroke="#4EDEE4" stroke-width="8" stroke-miterlimit="10"/>
<path d="M-2.82617 478.26C46.9829 451.177 62.5733 479.851 112.382 452.768C162.191 425.686 146.601 397.013 196.396 369.938C246.191 342.864 261.795 371.529 311.605 344.447C361.414 317.364 345.823 288.691 395.632 261.609C445.442 234.526 461.032 263.2 510.855 236.109C560.679 209.019 545.074 180.354 594.883 153.271" stroke="#FFE588" stroke-width="8" stroke-miterlimit="10"/>
<path d="M82.9531 636.021C132.762 608.938 148.384 637.67 198.193 610.587C248.002 583.505 232.38 554.773 282.175 527.699C331.97 500.624 347.606 529.348 397.416 502.266C447.225 475.183 431.603 446.452 481.412 419.369C531.221 392.287 546.843 421.019 596.666 393.928C646.49 366.838 630.853 338.114 680.663 311.032" stroke="#4EDEE4" stroke-width="8" stroke-miterlimit="10"/>
<path d="M-158.824 191.353C-109.015 164.27 -93.4248 192.943 -43.6157 165.861C6.19345 138.779 -9.39686 110.105 40.3979 83.0309C90.1927 55.9563 105.797 84.6218 155.606 57.5394C205.416 30.457 189.825 1.78378 239.634 -25.2986C289.443 -52.381 305.034 -23.7077 354.857 -50.7979C404.681 -77.888 389.076 -106.553 438.885 -133.636" stroke="#4EDEE4" stroke-width="8" stroke-miterlimit="10"/>
<path d="M-34.0391 420.855C15.7701 393.773 31.3604 422.446 81.1695 395.364C130.979 368.282 115.388 339.608 165.183 312.534C214.978 285.459 230.583 314.125 280.392 287.042C330.201 259.96 314.61 231.287 364.42 204.204C414.229 177.122 429.819 205.795 479.642 178.705C529.466 151.615 513.861 122.949 563.67 95.8671" stroke="#4EDEE4" stroke-width="8" stroke-miterlimit="10"/>
<path d="M-96.4316 306.104C-46.6225 279.021 -31.0322 307.694 18.7769 280.612C68.586 253.53 52.9957 224.856 102.791 197.782C152.585 170.707 168.19 199.373 217.999 172.29C267.808 145.208 252.218 116.535 302.027 89.4524C351.836 62.37 367.426 91.0433 417.25 63.9531C467.073 36.863 451.469 8.19749 501.278 -18.8849" stroke="#4EDEE4" stroke-width="8" stroke-miterlimit="10"/>
<path d="M28.3555 535.606C78.1646 508.524 93.7866 537.256 143.596 510.173C193.405 483.091 177.783 454.359 227.578 427.285C277.372 400.21 293.009 428.934 342.818 401.852C392.627 374.769 377.005 346.038 426.814 318.955C476.623 291.873 492.245 320.604 542.069 293.514C591.892 266.424 576.256 237.7 626.065 210.618" stroke="#4EDEE4" stroke-width="8" stroke-miterlimit="10"/>
<path d="M114.164 693.426C163.973 666.343 179.563 695.017 229.373 667.934C279.182 640.852 263.591 612.179 313.386 585.104C363.181 558.03 378.786 586.695 428.595 559.613C478.404 532.53 462.814 503.857 512.623 476.775C562.432 449.692 578.022 478.366 627.846 451.275C677.669 424.185 662.064 395.52 711.873 368.437" stroke="#4EDEE4" stroke-width="8" stroke-miterlimit="10"/>
</svg>
