<svg width="344" height="385" viewBox="0 0 344 385" fill="none" xmlns="http://www.w3.org/2000/svg">
<path d="M172.908 2.9L340.908 87.7" stroke="white" stroke-width="4" stroke-linecap="square"/>
<path d="M115.943 29.9594L283.943 114.759" stroke="white" stroke-width="4" stroke-linecap="square"/>
<path d="M172.908 72.7594L340.908 157.559" stroke="white" stroke-width="4" stroke-linecap="square"/>
<path d="M59.109 58.0187L227.109 142.819" stroke="white" stroke-width="4" stroke-linecap="square"/>
<path d="M115.943 100.819L283.943 185.619" stroke="white" stroke-width="4" stroke-linecap="square"/>
<path d="M172.908 143.619L340.908 228.419" stroke="white" stroke-width="4" stroke-linecap="square"/>
<path d="M3.60898 85.0063L171.609 169.806" stroke="white" stroke-width="4" stroke-linecap="square"/>
<path d="M60.443 127.806L228.443 212.606" stroke="white" stroke-width="4" stroke-linecap="square"/>
<path d="M117.408 170.606L285.408 255.406" stroke="white" stroke-width="4" stroke-linecap="square"/>
<path d="M171.636 211.806L339.636 296.606" stroke="white" stroke-width="4" stroke-linecap="square"/>
<path d="M3.44297 155.619L171.443 240.419" stroke="white" stroke-width="4" stroke-linecap="square"/>
<path d="M60.277 198.419L228.277 283.219" stroke="white" stroke-width="4" stroke-linecap="square"/>
<path d="M4.10898 296.606L172.109 381.406" stroke="white" stroke-width="4" stroke-linecap="square"/>
<path d="M3.81797 225.247L171.818 310.047" stroke="white" stroke-width="4" stroke-linecap="square"/>
<path d="M60.652 268.047L228.652 352.847" stroke="white" stroke-width="4" stroke-linecap="square"/>
<path d="M117.244 241.219L285.244 326.019" stroke="white" stroke-width="4" stroke-linecap="square"/>
</svg>
